<svg width="18" height="20" viewBox="0 0 18 20" fill="none" xmlns="http://www.w3.org/2000/svg">
<path d="M10.4687 0.388552C9.56619 -0.129517 8.45423 -0.129517 7.55168 0.388552L1.45852 3.88622C0.555988 4.40433 0 5.36177 0 6.39796V8.3454L2.92765 10.0259V6.96225C2.92765 6.61685 3.11298 6.29769 3.41382 6.12495L11.9379 1.23188L10.4687 0.388552Z" fill="white"/>
<path d="M9.46473 16.6622C9.16494 16.8355 8.79546 16.8355 8.49562 16.6622L0 11.7513V13.4441C0 14.484 0.554133 15.445 1.45365 15.965L7.5265 19.4754C8.42602 19.9953 9.53428 19.9953 10.4338 19.4754L12.1244 18.4982V15.1248L9.46473 16.6622Z" fill="white"/>
<path d="M14.8558 2.8912L11.9378 4.57347L14.5976 6.10686C14.8974 6.27974 15.0821 6.59923 15.0821 6.94495V16.741L16.5464 15.8968C17.4459 15.3782 18 14.4197 18 13.3825V6.38015C18 5.3429 17.4459 4.38446 16.5463 3.86586L14.8558 2.8912Z" fill="white"/>
</svg>
