<svg width="15" height="17" viewBox="0 0 15 17" fill="none" xmlns="http://www.w3.org/2000/svg">
<path d="M8.72391 0.323793C7.97183 -0.107931 7.04519 -0.107931 6.29307 0.323793L1.21543 3.23852C0.463323 3.67027 0 4.46814 0 5.33163V6.9545L2.43971 8.35493V5.80188C2.43971 5.51404 2.59415 5.24807 2.84485 5.10412L9.94823 1.02657L8.72391 0.323793Z" fill="white"/>
<path d="M7.88728 13.8851C7.63745 14.0296 7.32955 14.0296 7.07968 13.8851L0 9.79275V11.2034C0 12.07 0.461778 12.8708 1.21138 13.3041L6.27208 16.2295C7.02169 16.6628 7.94523 16.6628 8.69484 16.2295L10.1037 15.4151V12.604L7.88728 13.8851Z" fill="white"/>
<path d="M12.3798 2.40933L9.94818 3.81122L12.1646 5.08905C12.4145 5.23312 12.5684 5.49935 12.5684 5.78745V13.9508L13.7887 13.2473C14.5383 12.8152 15 12.0164 15 11.1521V5.31679C15 4.45242 14.5382 3.65371 13.7886 3.22155L12.3798 2.40933Z" fill="white"/>
</svg>
