<svg width="40" height="44" viewBox="0 0 40 44" fill="none" xmlns="http://www.w3.org/2000/svg">
<g clip-path="url(#clip0_2_15)">
<path d="M22.8652 0.848655C20.894 -0.282885 18.4653 -0.282885 16.494 0.848655L3.18562 8.48809C1.21436 9.61971 0 11.7109 0 13.9741V18.2276L6.39443 21.8981V15.2066C6.39443 14.4522 6.79921 13.7551 7.4563 13.3778L26.0741 2.69061L22.8652 0.848655Z" fill="white"/>
<path d="M20.6724 36.3927C20.0176 36.7712 19.2106 36.7712 18.5557 36.3927L0 25.6666V29.3639C0 31.6353 1.21031 33.7342 3.175 34.8699L16.439 42.5371C18.4037 43.6728 20.8243 43.6728 22.789 42.5371L26.4815 40.4028V33.0348L20.6724 36.3927Z" fill="white"/>
<path d="M32.4473 6.31482L26.074 9.98915L31.8833 13.3383C32.5382 13.7159 32.9416 14.4137 32.9416 15.1688V36.5648L36.1398 34.7209C38.1045 33.5883 39.3147 31.4948 39.3147 29.2294V13.9352C39.3147 11.6697 38.1044 9.57631 36.1397 8.44362L32.4473 6.31482Z" fill="white"/>
</g>
<defs>
<clipPath id="clip0_2_15">
<rect width="39.3148" height="43.3889" fill="white"/>
</clipPath>
</defs>
</svg>
