<svg width="14" height="15" viewBox="0 0 14 15" fill="none" xmlns="http://www.w3.org/2000/svg">
<path d="M8.31323 0.293389C7.63177 -0.0977964 6.79214 -0.0977964 6.11064 0.293389L1.50979 2.93442C0.828303 3.32564 0.408485 4.04858 0.408485 4.831V6.30148L2.61911 7.57041V5.25709C2.61911 4.99628 2.75905 4.75529 2.98621 4.62485L9.42258 0.930173L8.31323 0.293389Z" fill="white"/>
<path d="M7.55516 12.5813C7.32878 12.7122 7.0498 12.7122 6.82339 12.5813L0.408485 8.87321V10.1514C0.408485 10.9367 0.826903 11.6623 1.50612 12.0549L6.09162 14.7055C6.77084 15.0982 7.60767 15.0982 8.28689 14.7055L9.56342 13.9677V11.4205L7.55516 12.5813Z" fill="white"/>
<path d="M11.6259 2.18311L9.42255 3.45336L11.4309 4.6112C11.6573 4.74174 11.7967 4.98298 11.7967 5.24402V12.6408L12.9024 12.0034C13.5816 11.6118 14 10.8881 14 10.1049V4.81755C14 4.03434 13.5816 3.31064 12.9024 2.91905L11.6259 2.18311Z" fill="white"/>
</svg>
