<?xml version="1.0" encoding="UTF-8"?>
<svg width="31px" height="29px" viewBox="0 0 31 29" version="1.1" xmlns="http://www.w3.org/2000/svg" xmlns:xlink="http://www.w3.org/1999/xlink">
    <title>github</title>
    <g id="Page-1" stroke="none" stroke-width="1" fill="none" fill-rule="evenodd">
        <g id="Artboard" transform="translate(-629.000000, -446.000000)" fill="#FFFFFF" fill-rule="nonzero">
            <g id="Group-11" transform="translate(30.000000, 434.000000)">
                <g id="Group-5" transform="translate(578.705701, 0.000000)">
                    <path d="M36.1898952,12.0702466 C27.9177855,12.0702466 21.216057,18.7241545 21.216057,26.924792 C21.216057,33.4914295 25.5060616,39.057242 31.4516113,41.0208273 C32.2031108,41.161017 32.4745116,40.7014545 32.4745116,40.3040955 C32.4745116,39.9513 32.4660888,39.0182489 32.4604736,37.7797511 C28.2930673,38.6747375 27.415226,35.7827432 27.415226,35.7827432 C26.7329805,34.0707568 25.7484506,33.6111943 25.7484506,33.6111943 C24.3933183,32.6929977 25.8560751,32.7124943 25.8560751,32.7124943 C27.3572024,32.8136909 28.1470723,34.2397273 28.1470723,34.2397273 C29.4825515,36.5124727 31.6509505,35.8551591 32.5091386,35.4726545 C32.6401597,34.5154648 33.0304153,33.8572227 33.455298,33.4905011 C30.1311059,33.1182091 26.6356506,31.8416466 26.6356506,26.1495705 C26.6356506,24.5239261 27.2158868,23.2000148 28.1751483,22.1601966 C28.0095002,21.7879045 27.5022614,20.2745977 28.3071052,18.2283841 C28.3071052,18.2283841 29.5602283,17.8319534 32.4249107,19.7519034 C33.6237537,19.4223182 34.8965299,19.2579898 36.1683703,19.2496341 C37.4411465,19.2579898 38.7129869,19.4232466 39.9118298,19.7519034 C42.7596667,17.8319534 44.0118539,18.2283841 44.0118539,18.2283841 C44.8157619,20.2745977 44.3085231,21.7869761 44.1625282,22.1601966 C45.112431,23.2000148 45.6926673,24.5248545 45.6926673,26.1495705 C45.6926673,31.8546443 42.1925326,33.1126386 38.864597,33.4756466 C39.3849379,33.9203545 39.8725235,34.8348375 39.8725235,36.2228091 C39.8725235,38.2096045 39.8538062,39.8101818 39.8538062,40.293883 C39.8538062,40.6801011 40.1158484,41.1443057 40.8870011,40.9948318 C46.8765363,39.0516716 51.1618617,33.481217 51.1618617,26.9238636 C51.1618617,18.7232261 44.4601332,12.0693182 36.1880235,12.0693182 L36.1898952,12.0702466 Z" id="github"></path>
                </g>
            </g>
        </g>
    </g>
</svg>