<?xml version="1.0" encoding="UTF-8"?>
<svg width="19px" height="22px" viewBox="0 0 19 22" version="1.1" xmlns="http://www.w3.org/2000/svg" xmlns:xlink="http://www.w3.org/1999/xlink">
    <title>pin</title>
    <g id="Page-1" stroke="none" stroke-width="1" fill="none" fill-rule="evenodd">
        <g id="Artboard" transform="translate(-350.000000, -621.000000)" fill="#FFFFFF" fill-rule="nonzero">
            <g id="pin" transform="translate(350.189484, 621.561822)">
                <path d="M5.5178833,3.62411499 C5.5178833,4.18807983 5.63484192,4.71038818 5.86875916,5.19104004 C6.10267639,5.67169189 6.42471313,6.08184814 6.83486938,6.42150879 C7.24502563,6.76116943 7.70965576,6.99508667 8.22875977,7.1232605 L8.22875977,13.208313 C8.22875977,13.9196777 8.25759888,14.5477295 8.3152771,15.0924683 C8.37295532,15.637207 8.44665527,16.0954285 8.53637695,16.4671326 C8.62609863,16.8388367 8.722229,17.1192169 8.82476807,17.3082733 C8.92730713,17.4973297 9.02664185,17.5918579 9.12277222,17.5918579 C9.21890259,17.5918579 9.31983948,17.4973297 9.42558289,17.3082733 C9.53132629,17.1192169 9.62745667,16.8388367 9.713974,16.4671326 C9.80049133,16.0954285 9.87258911,15.637207 9.93026733,15.0924683 C9.98794556,14.5477295 10.0167847,13.9196777 10.0167847,13.208313 L10.0167847,7.1232605 C10.5358887,6.99508667 11.0005188,6.76116943 11.410675,6.42150879 C11.8208313,6.08184814 12.1444702,5.67169189 12.3815918,5.19104004 C12.6187134,4.71038818 12.7372742,4.18807983 12.7372742,3.62411499 C12.7372742,2.95761108 12.5754547,2.35038757 12.2518158,1.80244446 C11.9281769,1.25450134 11.493988,0.817108154 10.9492493,0.490264893 C10.4045105,0.163421631 9.79568481,0 9.12277222,0 C8.45626831,0 7.85064697,0.163421631 7.3059082,0.490264893 C6.76116943,0.817108154 6.32698059,1.25450134 6.00334167,1.80244446 C5.67970276,2.35038757 5.5178833,2.95761108 5.5178833,3.62411499 Z M8.09417725,3.81637573 C7.76733398,3.81637573 7.48054504,3.69300842 7.23381042,3.4462738 C6.98707581,3.19953918 6.8637085,2.9095459 6.8637085,2.57629395 C6.8637085,2.24304199 6.98707581,1.95465088 7.23381042,1.71112061 C7.48054504,1.46759033 7.76733398,1.3458252 8.09417725,1.3458252 C8.43383789,1.3458252 8.72543335,1.46759033 8.96896362,1.71112061 C9.2124939,1.95465088 9.33425903,2.24304199 9.33425903,2.57629395 C9.33425903,2.9095459 9.2124939,3.19953918 8.96896362,3.4462738 C8.72543335,3.69300842 8.43383789,3.81637573 8.09417725,3.81637573 Z M9.13238525,21.1102295 C10.5807495,21.1102295 11.8704987,20.9964752 13.0016327,20.7689667 C14.1327667,20.5414581 15.0892639,20.2338409 15.8711243,19.8461151 C16.6529846,19.4583893 17.2457886,19.0193939 17.6495361,18.529129 C18.0532837,18.0388641 18.2551575,17.527771 18.2551575,16.9958496 C18.2551575,16.489563 18.1125641,16.0233307 17.8273773,15.5971527 C17.5421906,15.1709747 17.1592712,14.7912598 16.6786194,14.4580078 C16.1979675,14.1247559 15.664444,13.8411713 15.0780487,13.607254 C14.4916534,13.3733368 13.8956451,13.1938934 13.2900238,13.068924 C12.6844025,12.9439545 12.1156311,12.8814697 11.5837097,12.8814697 L11.5837097,14.2849731 C12.0515442,14.2913818 12.5562286,14.3570709 13.0977631,14.4820404 C13.6392975,14.6070099 14.153595,14.7784424 14.6406555,14.9963379 C15.1277161,15.2142334 15.5282593,15.4737854 15.8422852,15.7749939 C16.156311,16.0762024 16.313324,16.40625 16.313324,16.7651367 C16.313324,17.1817017 16.1338806,17.5614166 15.7749939,17.9042816 C15.4161072,18.2471466 14.9146271,18.5451508 14.2705536,18.7982941 C13.6264801,19.0514374 12.8670502,19.2469025 11.9922638,19.3846893 C11.1174774,19.5224762 10.1641846,19.5913696 9.13238525,19.5913696 C8.09417725,19.5913696 7.13768005,19.5224762 6.26289368,19.3846893 C5.3881073,19.2469025 4.62867737,19.0530396 3.98460388,18.8031006 C3.3405304,18.5531616 2.84065247,18.2551575 2.48497009,17.9090881 C2.12928772,17.5630188 1.95144653,17.1817017 1.95144653,16.7651367 C1.95144653,16.40625 2.1068573,16.0762024 2.41767883,15.7749939 C2.72850037,15.4737854 3.12744141,15.2142334 3.61450195,14.9963379 C4.1015625,14.7784424 4.61746216,14.6070099 5.16220093,14.4820404 C5.7069397,14.3570709 6.21002197,14.2913818 6.67144775,14.2849731 L6.67144775,12.8814697 C6.14593506,12.8814697 5.58036804,12.9439545 4.9747467,13.068924 C4.36912537,13.1938934 3.77311707,13.3733368 3.1867218,13.607254 C2.60032654,13.8411713 2.06680298,14.1247559 1.58615112,14.4580078 C1.10549927,14.7912598 0.720977783,15.1709747 0.43258667,15.5971527 C0.144195557,16.0233307 0,16.489563 0,16.9958496 C0,17.527771 0.203475952,18.0388641 0.610427856,18.529129 C1.01737976,19.0193939 1.61178589,19.4583893 2.39364624,19.8461151 C3.17550659,20.2338409 4.13200378,20.5414581 5.26313782,20.7689667 C6.39427185,20.9964752 7.684021,21.1102295 9.13238525,21.1102295 Z" id="Shape"></path>
            </g>
        </g>
    </g>
</svg>