<?xml version="1.0" encoding="UTF-8"?>
<svg width="28px" height="23px" viewBox="0 0 28 23" version="1.1" xmlns="http://www.w3.org/2000/svg" xmlns:xlink="http://www.w3.org/1999/xlink">
    <title>twitter</title>
    <g id="Page-1" stroke="none" stroke-width="1" fill="none" fill-rule="evenodd">
        <g id="Artboard" transform="translate(-50.000000, -452.000000)" fill="#FFFFFF" fill-rule="nonzero">
            <g id="Group-11" transform="translate(30.000000, 434.000000)">
                <g id="Group-2-Copy" transform="translate(0.000000, 1.295455)">
                    <path d="M20.5890275,36.4657505 C23.0360872,38.0620962 25.9426283,38.9931818 29.0654765,38.9931818 C39.2366163,38.9931818 44.7984811,30.4219193 44.7984811,22.9882926 C44.7984811,22.7446627 44.7930906,22.5019903 44.7825661,22.2606235 C45.8631604,21.4675861 46.8006053,20.4768769 47.5419363,19.3488158 C46.5502435,19.7962104 45.4845374,20.0987675 44.3659525,20.2347267 C45.5077254,19.5383927 46.384505,18.43627 46.7972683,17.1226359 C45.7287386,17.7670931 44.5452957,18.2354647 43.2858716,18.4875376 C42.277237,17.3942932 40.8400954,16.7113636 39.2495366,16.7113636 C36.19591,16.7113636 33.719844,19.2299167 33.719844,22.3362628 C33.719844,22.7771293 33.7689581,23.2064192 33.8633357,23.6183008 C29.2676655,23.3834621 25.1930831,21.144226 22.4658852,17.7407194 C21.9898042,18.571707 21.7171101,19.5378705 21.7171101,20.56888 C21.7171101,22.5202691 22.693059,24.242129 24.1769189,25.2508559 C23.2703628,25.2216098 22.4177124,24.9684054 21.6723599,24.5472103 C21.6718465,24.5707987 21.6718465,24.5942999 21.6718465,24.6180623 C21.6718465,27.3434266 23.5780528,29.6167831 26.1075967,30.1337241 C25.6435803,30.2620236 25.1550069,30.3311348 24.6506896,30.3311348 C24.294399,30.3311348 23.9479482,30.2957958 23.6101395,30.2299052 C24.3139077,32.4647893 26.3561616,34.0911644 28.7759262,34.1363391 C26.8833246,35.6452949 24.4990693,36.5446103 21.9083468,36.5446103 C21.4617,36.5446973 21.0216417,36.5180625 20.5890275,36.4657505 Z" id="twitter"></path>
                </g>
            </g>
        </g>
    </g>
</svg>