<?xml version="1.0" encoding="UTF-8"?>
<svg width="34px" height="32px" viewBox="0 0 34 32" version="1.1" xmlns="http://www.w3.org/2000/svg" xmlns:xlink="http://www.w3.org/1999/xlink">
    <title>chat</title>
    <g id="Page-1" stroke="none" stroke-width="1" fill="none" fill-rule="evenodd">
        <g id="Artboard-Copy-3" transform="translate(-601.000000, -202.000000)" fill="#00AEFF" fill-rule="nonzero">
            <path d="M610.506332,233.849304 C610.815475,233.849304 611.100853,233.772743 611.362465,233.619621 C611.624077,233.466499 611.940506,233.220718 612.311752,232.882278 L617.693909,228.013504 L627.298019,228.025406 C628.769272,228.025406 630.01683,227.753418 631.040695,227.209442 C632.06456,226.665466 632.844017,225.881584 633.379066,224.857796 C633.914116,223.834007 634.181641,222.595337 634.181641,221.141785 L634.181641,209.778717 C634.181641,208.325317 633.914116,207.086685 633.379066,206.06282 C632.844017,205.038956 632.06456,204.255074 631.040695,203.711174 C630.01683,203.167274 628.769272,202.895325 627.298019,202.895325 L608.616226,202.895325 C607.146805,202.895325 605.900162,203.167274 604.876297,203.711174 C603.852432,204.255074 603.072975,205.038956 602.537926,206.06282 C602.002876,207.086685 601.735352,208.325317 601.735352,209.778717 L601.735352,221.141785 C601.735352,222.595337 602.006042,223.834007 602.547424,224.857796 C603.088806,225.881584 603.865593,226.663483 604.877785,227.203491 C605.889977,227.7435 607.104767,228.013504 608.522156,228.013504 L609.111298,228.013504 L609.111298,232.257431 C609.111298,232.743271 609.233025,233.130043 609.476479,233.417747 C609.719933,233.705452 610.063217,233.849304 610.506332,233.849304 Z" id="chat"></path>
        </g>
    </g>
</svg>