<?xml version="1.0" encoding="UTF-8"?>
<svg width="31px" height="31px" viewBox="0 0 31 31" version="1.1" xmlns="http://www.w3.org/2000/svg" xmlns:xlink="http://www.w3.org/1999/xlink">
    <title>earn</title>
    <g id="Page-1" stroke="none" stroke-width="1" fill="" fill-rule="evenodd">
        <g id="Artboard-Copy-3" transform="translate(-235.000000, -291.000000)" fill="#FFC000" fill-rule="nonzero">
            <path d="M250.753906,321.570312 C252.824219,321.570312 254.772461,321.177246 256.598633,320.391113 C258.424805,319.60498 260.036133,318.513672 261.432617,317.117188 C262.829102,315.720703 263.922852,314.109375 264.713867,312.283203 C265.504883,310.457031 265.900391,308.508789 265.900391,306.438477 C265.900391,304.368164 265.504883,302.419922 264.713867,300.59375 C263.922852,298.767578 262.829102,297.158691 261.432617,295.76709 C260.036133,294.375488 258.424805,293.28418 256.598633,292.493164 C254.772461,291.702148 252.819336,291.306641 250.739258,291.306641 C248.668945,291.306641 246.723145,291.702148 244.901855,292.493164 C243.080566,293.28418 241.474121,294.375488 240.08252,295.76709 C238.690918,297.158691 237.599609,298.767578 236.808594,300.59375 C236.017578,302.419922 235.62207,304.368164 235.62207,306.438477 C235.62207,308.508789 236.017578,310.457031 236.808594,312.283203 C237.599609,314.109375 238.690918,315.720703 240.08252,317.117188 C241.474121,318.513672 243.083008,319.60498 244.90918,320.391113 C246.735352,321.177246 248.683594,321.570312 250.753906,321.570312 Z M247.545898,303.303711 C246.823242,303.303711 246.208008,303.04248 245.700195,302.52002 C245.192383,301.997559 244.938477,301.384766 244.938477,300.681641 C244.938477,299.958984 245.194824,299.341309 245.70752,298.828613 C246.220215,298.315918 246.833008,298.05957 247.545898,298.05957 C248.258789,298.05957 248.876465,298.315918 249.398926,298.828613 C249.921387,299.341309 250.182617,299.958984 250.182617,300.681641 C250.182617,301.384766 249.921387,301.997559 249.398926,302.52002 C248.876465,303.04248 248.258789,303.303711 247.545898,303.303711 Z M253.991211,303.303711 C253.27832,303.303711 252.660645,303.04248 252.138184,302.52002 C251.615723,301.997559 251.354492,301.384766 251.354492,300.681641 C251.354492,299.958984 251.615723,299.341309 252.138184,298.828613 C252.660645,298.315918 253.27832,298.05957 253.991211,298.05957 C254.704102,298.05957 255.316895,298.315918 255.82959,298.828613 C256.342285,299.341309 256.598633,299.958984 256.598633,300.681641 C256.598633,301.384766 256.342285,301.997559 255.82959,302.52002 C255.316895,303.04248 254.704102,303.303711 253.991211,303.303711 Z M244.352539,309.045898 C243.629883,309.045898 243.009766,308.789551 242.492188,308.276855 C241.974609,307.76416 241.71582,307.151367 241.71582,306.438477 C241.71582,305.725586 241.977051,305.110352 242.499512,304.592773 C243.021973,304.075195 243.639648,303.816406 244.352539,303.816406 C245.06543,303.816406 245.678223,304.075195 246.190918,304.592773 C246.703613,305.110352 246.959961,305.725586 246.959961,306.438477 C246.959961,307.151367 246.703613,307.76416 246.190918,308.276855 C245.678223,308.789551 245.06543,309.045898 244.352539,309.045898 Z M250.768555,309.045898 C250.055664,309.045898 249.44043,308.789551 248.922852,308.276855 C248.405273,307.76416 248.146484,307.151367 248.146484,306.438477 C248.146484,305.725586 248.405273,305.110352 248.922852,304.592773 C249.44043,304.075195 250.055664,303.816406 250.768555,303.816406 C251.481445,303.816406 252.09668,304.075195 252.614258,304.592773 C253.131836,305.110352 253.390625,305.725586 253.390625,306.438477 C253.390625,307.151367 253.131836,307.76416 252.614258,308.276855 C252.09668,308.789551 251.481445,309.045898 250.768555,309.045898 Z M257.199219,309.045898 C256.476562,309.045898 255.861328,308.789551 255.353516,308.276855 C254.845703,307.76416 254.591797,307.151367 254.591797,306.438477 C254.591797,305.725586 254.845703,305.110352 255.353516,304.592773 C255.861328,304.075195 256.476562,303.816406 257.199219,303.816406 C257.912109,303.816406 258.527344,304.075195 259.044922,304.592773 C259.5625,305.110352 259.821289,305.725586 259.821289,306.438477 C259.821289,307.151367 259.5625,307.76416 259.044922,308.276855 C258.527344,308.789551 257.912109,309.045898 257.199219,309.045898 Z M247.545898,314.817383 C246.823242,314.817383 246.208008,314.558594 245.700195,314.041016 C245.192383,313.523438 244.938477,312.908203 244.938477,312.195312 C244.938477,311.482422 245.194824,310.867188 245.70752,310.349609 C246.220215,309.832031 246.833008,309.573242 247.545898,309.573242 C248.258789,309.573242 248.876465,309.832031 249.398926,310.349609 C249.921387,310.867188 250.182617,311.482422 250.182617,312.195312 C250.182617,312.917969 249.921387,313.535645 249.398926,314.04834 C248.876465,314.561035 248.258789,314.817383 247.545898,314.817383 Z M253.991211,314.817383 C253.27832,314.817383 252.660645,314.561035 252.138184,314.04834 C251.615723,313.535645 251.354492,312.917969 251.354492,312.195312 C251.354492,311.482422 251.615723,310.867188 252.138184,310.349609 C252.660645,309.832031 253.27832,309.573242 253.991211,309.573242 C254.704102,309.573242 255.316895,309.832031 255.82959,310.349609 C256.342285,310.867188 256.598633,311.482422 256.598633,312.195312 C256.598633,312.917969 256.342285,313.535645 255.82959,314.04834 C255.316895,314.561035 254.704102,314.817383 253.991211,314.817383 Z" id="earn"></path>
        </g>
    </g>
</svg>