<?xml version="1.0" encoding="UTF-8"?>
<svg width="31px" height="31px" viewBox="0 0 31 31" version="1.1" xmlns="http://www.w3.org/2000/svg" xmlns:xlink="http://www.w3.org/1999/xlink">
    <title>find</title>
    <g id="Page-1" stroke="none" stroke-width="1" fill="none" fill-rule="evenodd">
        <g id="Artboard-Copy-3" transform="translate(-418.000000, -291.000000)" fill="#004B96" fill-rule="nonzero">
            <path d="M433.753906,321.555664 C435.824219,321.555664 437.772461,321.162598 439.598633,320.376465 C441.424805,319.590332 443.036133,318.499023 444.432617,317.102539 C445.829102,315.706055 446.922852,314.094727 447.713867,312.268555 C448.504883,310.442383 448.900391,308.494141 448.900391,306.423828 C448.900391,304.353516 448.504883,302.405273 447.713867,300.579102 C446.922852,298.75293 445.829102,297.144043 444.432617,295.752441 C443.036133,294.36084 441.424805,293.269531 439.598633,292.478516 C437.772461,291.6875 435.819336,291.291992 433.739258,291.291992 C431.668945,291.291992 429.723145,291.6875 427.901855,292.478516 C426.080566,293.269531 424.474121,294.36084 423.08252,295.752441 C421.690918,297.144043 420.599609,298.75293 419.808594,300.579102 C419.017578,302.405273 418.62207,304.353516 418.62207,306.423828 C418.62207,308.494141 419.017578,310.442383 419.808594,312.268555 C420.599609,314.094727 421.690918,315.706055 423.08252,317.102539 C424.474121,318.499023 426.083008,319.590332 427.90918,320.376465 C429.735352,321.162598 431.683594,321.555664 433.753906,321.555664 Z M432.171875,311.09668 C431.019531,311.09668 429.962402,310.808594 429.000488,310.232422 C428.038574,309.65625 427.271973,308.89209 426.700684,307.939941 C426.129395,306.987793 425.84375,305.930664 425.84375,304.768555 C425.84375,303.606445 426.129395,302.541992 426.700684,301.575195 C427.271973,300.608398 428.038574,299.839355 429.000488,299.268066 C429.962402,298.696777 431.019531,298.411133 432.171875,298.411133 C433.333984,298.411133 434.395996,298.696777 435.35791,299.268066 C436.319824,299.839355 437.086426,300.605957 437.657715,301.567871 C438.229004,302.529785 438.514648,303.59668 438.514648,304.768555 C438.514648,305.383789 438.426758,305.979492 438.250977,306.555664 C438.075195,307.131836 437.826172,307.65918 437.503906,308.137695 L441.180664,311.84375 C441.317383,311.980469 441.427246,312.13916 441.510254,312.319824 C441.593262,312.500488 441.634766,312.683594 441.634766,312.869141 C441.634766,313.298828 441.50293,313.650391 441.239258,313.923828 C440.975586,314.197266 440.638672,314.333984 440.228516,314.333984 C439.779297,314.333984 439.393555,314.167969 439.071289,313.835938 L435.394531,310.188477 C434.925781,310.47168 434.42041,310.693848 433.878418,310.85498 C433.336426,311.016113 432.767578,311.09668 432.171875,311.09668 Z M432.171875,308.826172 C432.923828,308.826172 433.60498,308.640625 434.215332,308.269531 C434.825684,307.898438 435.313965,307.405273 435.680176,306.790039 C436.046387,306.174805 436.229492,305.500977 436.229492,304.768555 C436.229492,304.006836 436.046387,303.318359 435.680176,302.703125 C435.313965,302.087891 434.825684,301.597168 434.215332,301.230957 C433.60498,300.864746 432.923828,300.681641 432.171875,300.681641 C431.429688,300.681641 430.750977,300.867188 430.135742,301.238281 C429.520508,301.609375 429.029785,302.102539 428.663574,302.717773 C428.297363,303.333008 428.114258,304.016602 428.114258,304.768555 C428.114258,305.500977 428.297363,306.174805 428.663574,306.790039 C429.029785,307.405273 429.520508,307.898438 430.135742,308.269531 C430.750977,308.640625 431.429688,308.826172 432.171875,308.826172 Z" id="find"></path>
        </g>
    </g>
</svg>