<?xml version="1.0" encoding="UTF-8"?>
<svg width="29px" height="29px" viewBox="0 0 29 29" version="1.1" xmlns="http://www.w3.org/2000/svg" xmlns:xlink="http://www.w3.org/1999/xlink">
    <title>fund</title>
    <g id="Page-1" stroke="none" stroke-width="1" fill="none" fill-rule="evenodd">
        <g id="Artboard-Copy-3" transform="translate(-603.000000, -291.000000)" fill="#D40000" fill-rule="nonzero">
            <path d="M608.540039,319.120117 L626.279297,319.120117 C627.861328,319.120117 629.057617,318.717285 629.868164,317.911621 C630.678711,317.105957 631.083984,315.921875 631.083984,314.359375 L631.083984,296.532227 C631.083984,294.959961 630.678711,293.773438 629.868164,292.972656 C629.057617,292.171875 627.861328,291.771484 626.279297,291.771484 L608.540039,291.771484 C606.958008,291.771484 605.761719,292.171875 604.951172,292.972656 C604.140625,293.773438 603.735352,294.959961 603.735352,296.532227 L603.735352,314.359375 C603.735352,315.921875 604.140625,317.105957 604.951172,317.911621 C605.761719,318.717285 606.958008,319.120117 608.540039,319.120117 Z M617.475586,313.114258 C617.084961,313.114258 616.757812,312.989746 616.494141,312.740723 C616.230469,312.491699 616.098633,312.171875 616.098633,311.78125 L616.098633,304.632812 L616.245117,301.483398 L614.882812,303.197266 L613.183594,304.969727 C612.939453,305.233398 612.631836,305.365234 612.260742,305.365234 C611.899414,305.365234 611.599121,305.248047 611.359863,305.013672 C611.120605,304.779297 611.000977,304.486328 611.000977,304.134766 C611.000977,303.763672 611.123047,303.451172 611.367188,303.197266 L616.391602,298.114258 C616.713867,297.772461 617.075195,297.601562 617.475586,297.601562 C617.866211,297.601562 618.227539,297.772461 618.55957,298.114258 L623.583984,303.197266 C623.828125,303.460938 623.950195,303.773438 623.950195,304.134766 C623.950195,304.486328 623.828125,304.779297 623.583984,305.013672 C623.339844,305.248047 623.037109,305.365234 622.675781,305.365234 C622.294922,305.365234 621.987305,305.233398 621.75293,304.969727 L620.068359,303.211914 L618.691406,301.483398 L618.823242,304.632812 L618.823242,311.78125 C618.823242,312.171875 618.696289,312.491699 618.442383,312.740723 C618.188477,312.989746 617.866211,313.114258 617.475586,313.114258 Z" id="fund"></path>
        </g>
    </g>
</svg>