<?xml version="1.0" encoding="UTF-8"?>
<svg width="43px" height="21px" viewBox="0 0 43 21" version="1.1" xmlns="http://www.w3.org/2000/svg" xmlns:xlink="http://www.w3.org/1999/xlink">
    <title>join</title>
    <g id="Page-1" stroke="none" stroke-width="1" fill="none" fill-rule="evenodd">
        <g id="Artboard-Copy-3" transform="translate(-598.000000, -472.000000)" fill="#FF355C" fill-rule="nonzero">
            <path d="M612.728491,492.62934 L626.643042,492.62934 C627.601375,492.62934 628.267716,492.485215 628.642065,492.196967 C629.016414,491.908718 629.203589,491.498806 629.203589,490.96723 C629.203589,490.24848 628.982723,489.492295 628.540991,488.698676 C628.099259,487.905056 627.462866,487.160101 626.631811,486.463812 C625.800757,485.767523 624.801245,485.204128 623.633276,484.773627 C622.465307,484.343125 621.151342,484.127875 619.691382,484.127875 C618.238908,484.127875 616.926814,484.343125 615.755102,484.773627 C614.58339,485.204128 613.582007,485.767523 612.750952,486.463812 C611.919897,487.160101 611.283504,487.905056 610.841772,488.698676 C610.40004,489.492295 610.179174,490.24848 610.179174,490.96723 C610.179174,491.498806 610.366349,491.908718 610.740698,492.196967 C611.115047,492.485215 611.777645,492.62934 612.728491,492.62934 Z M619.691382,482.140082 C620.522436,482.140082 621.282365,481.919216 621.971167,481.477484 C622.659969,481.035752 623.212133,480.436794 623.627661,479.680609 C624.043188,478.924424 624.250952,478.074652 624.250952,477.131293 C624.250952,476.217881 624.043188,475.39057 623.627661,474.649359 C623.212133,473.908148 622.659969,473.322292 621.971167,472.891791 C621.282365,472.461289 620.522436,472.246039 619.691382,472.246039 C618.867814,472.246039 618.111629,472.465033 617.422827,472.903021 C616.734025,473.341009 616.179988,473.930609 615.760717,474.67182 C615.341447,475.413031 615.135555,476.240342 615.143042,477.153754 C615.143042,478.082139 615.350805,478.924424 615.766333,479.680609 C616.18186,480.436794 616.734025,481.035752 617.422827,481.477484 C618.111629,481.919216 618.867814,482.140082 619.691382,482.140082 Z M600.520971,492.62934 L608.853979,492.62934 C608.5545,492.195095 608.399145,491.676621 608.387915,491.07392 C608.376684,490.471218 608.492732,489.832953 608.736059,489.159125 C608.979386,488.485297 609.333146,487.828314 609.797339,487.188177 C610.261531,486.548041 610.819311,485.969672 611.470678,485.45307 C610.864233,485.063747 610.158585,484.739935 609.353735,484.481634 C608.548885,484.223334 607.652319,484.094183 606.664038,484.094183 C605.413712,484.094183 604.281307,484.298203 603.266821,484.706244 C602.252335,485.114284 601.380102,485.649603 600.650122,486.312201 C599.920141,486.974799 599.358618,487.697292 598.965551,488.479681 C598.572485,489.262071 598.375952,490.027614 598.375952,490.776312 C598.375952,491.360297 598.536922,491.815131 598.858862,492.140814 C599.180802,492.466498 599.734839,492.62934 600.520971,492.62934 Z M606.664038,482.398383 C607.390275,482.398383 608.052872,482.203721 608.651831,481.814398 C609.250789,481.425075 609.729956,480.900987 610.089331,480.242133 C610.448706,479.583278 610.628393,478.845811 610.628393,478.02973 C610.628393,477.228623 610.446834,476.508002 610.083715,475.867865 C609.720597,475.227728 609.237687,474.718614 608.634985,474.340521 C608.032283,473.962429 607.375301,473.773383 606.664038,473.773383 C605.952775,473.773383 605.295792,473.964301 604.69309,474.346136 C604.090389,474.727972 603.605607,475.24083 603.238745,475.884711 C602.871883,476.528591 602.692195,477.251084 602.699682,478.052191 C602.699682,478.860785 602.87937,479.592637 603.238745,480.247748 C603.59812,480.902858 604.079158,481.425075 604.68186,481.814398 C605.284562,482.203721 605.945288,482.398383 606.664038,482.398383 Z M638.850561,492.62934 C639.636694,492.62934 640.188859,492.466498 640.507055,492.140814 C640.825252,491.815131 640.98435,491.360297 640.98435,490.776312 C640.98435,490.027614 640.789689,489.262071 640.400366,488.479681 C640.011043,487.697292 639.451391,486.974799 638.721411,486.312201 C637.99143,485.649603 637.117326,485.114284 636.099096,484.706244 C635.080867,484.298203 633.950333,484.094183 632.707495,484.094183 C631.711727,484.094183 630.813289,484.223334 630.012182,484.481634 C629.211076,484.739935 628.503556,485.063747 627.889624,485.45307 C628.540991,485.969672 629.100643,486.548041 629.568579,487.188177 C630.036515,487.828314 630.392146,488.485297 630.635473,489.159125 C630.8788,489.832953 630.994848,490.471218 630.983618,491.07392 C630.972387,491.676621 630.813289,492.195095 630.506323,492.62934 L638.850561,492.62934 Z M632.707495,482.398383 C633.426245,482.398383 634.085099,482.203721 634.684057,481.814398 C635.283016,481.425075 635.762182,480.902858 636.121557,480.247748 C636.480932,479.592637 636.664363,478.860785 636.67185,478.052191 C636.67185,477.251084 636.490291,476.528591 636.127173,475.884711 C635.764054,475.24083 635.281144,474.727972 634.678442,474.346136 C634.07574,473.964301 633.418758,473.773383 632.707495,473.773383 C631.988745,473.773383 631.328019,473.962429 630.725317,474.340521 C630.122615,474.718614 629.639705,475.227728 629.276587,475.867865 C628.913468,476.508002 628.731909,477.228623 628.731909,478.02973 C628.731909,478.845811 628.913468,479.583278 629.276587,480.242133 C629.639705,480.900987 630.120743,481.425075 630.719702,481.814398 C631.31866,482.203721 631.981258,482.398383 632.707495,482.398383 Z" id="join"></path>
        </g>
    </g>
</svg>