<?xml version="1.0" encoding="UTF-8"?>
<svg width="29px" height="32px" viewBox="0 0 29 32" version="1.1" xmlns="http://www.w3.org/2000/svg" xmlns:xlink="http://www.w3.org/1999/xlink">
    <title>list</title>
    <g id="Page-1" stroke="none" stroke-width="1" fill="none" fill-rule="evenodd">
        <g id="Artboard-Copy-3" transform="translate(-606.000000, -378.000000)" fill="#BD00E0" fill-rule="nonzero">
            <path d="M612.318451,394.477539 C612.016815,394.477539 611.769012,394.373718 611.575043,394.166077 C611.381073,393.958435 611.284088,393.715759 611.284088,393.438049 C611.284088,393.149516 611.380646,392.90328 611.573761,392.699341 C611.766876,392.495402 612.015106,392.393433 612.318451,392.393433 L620.806335,392.393433 C621.08903,392.393433 621.328395,392.495402 621.524429,392.699341 C621.720464,392.90328 621.818481,393.149516 621.818481,393.438049 C621.818481,393.71405 621.720037,393.956299 621.523148,394.164795 C621.326258,394.373291 621.087321,394.477539 620.806335,394.477539 L612.318451,394.477539 Z M612.318451,398.164032 C612.016815,398.164032 611.769012,398.065765 611.575043,397.869232 C611.381073,397.672699 611.284088,397.432729 611.284088,397.149323 C611.284088,396.860789 611.380646,396.614553 611.573761,396.410614 C611.766876,396.206675 612.015106,396.104706 612.318451,396.104706 L618.349884,396.104706 C618.638418,396.104706 618.880702,396.206248 619.076736,396.409332 C619.272771,396.612417 619.370789,396.85908 619.370789,397.149323 C619.370789,397.432729 619.272344,397.672699 619.075455,397.869232 C618.878565,398.065765 618.636709,398.164032 618.349884,398.164032 L612.318451,398.164032 Z M627.301117,398.472931 C626.674632,398.472931 626.107391,398.323146 625.599396,398.023575 C625.0914,397.724004 624.685338,397.318797 624.38121,396.807953 C624.077082,396.297109 623.925018,395.732147 623.925018,395.113068 C623.925018,394.495697 624.077082,393.93159 624.38121,393.420746 C624.685338,392.909902 625.0914,392.504695 625.599396,392.205124 C626.107391,391.905553 626.674632,391.755768 627.301117,391.755768 C627.909373,391.755768 628.468923,391.905553 628.979767,392.205124 C629.490611,392.504695 629.895818,392.909902 630.195389,393.420746 C630.49496,393.93159 630.644745,394.495697 630.644745,395.113068 C630.644745,395.732147 630.49496,396.297109 630.195389,396.807953 C629.895818,397.318797 629.490611,397.724004 628.979767,398.023575 C628.468923,398.323146 627.909373,398.472931 627.301117,398.472931 Z M610.825653,409.331177 L630.468292,409.331177 C631.891449,409.331177 632.970886,408.965597 633.706604,408.234436 C634.442322,407.503276 634.810181,406.433594 634.810181,405.025391 L634.810181,391.251404 C634.810181,389.84491 634.442322,388.777934 633.706604,388.050476 C632.970886,387.323018 631.891449,386.95929 630.468292,386.95929 L610.825653,386.95929 C609.395091,386.95929 608.314229,387.323018 607.583069,388.050476 C606.851908,388.777934 606.486328,389.84491 606.486328,391.251404 L606.486328,405.025391 C606.486328,406.440999 606.851908,407.512533 607.583069,408.23999 C608.314229,408.967448 609.395091,409.331177 610.825653,409.331177 Z M609.207886,384.733124 L632.099731,384.733124 C631.995341,384.086558 631.767975,383.585648 631.417633,383.230392 C631.067291,382.875137 630.528605,382.69751 629.801575,382.69751 L611.503479,382.69751 C610.778158,382.69751 610.238047,382.875137 609.883148,383.230392 C609.528249,383.585648 609.303162,384.086558 609.207886,384.733124 Z M611.991821,380.785583 L629.313446,380.785583 C629.264455,380.175476 629.062937,379.712306 628.708893,379.396072 C628.354848,379.079839 627.847137,378.921722 627.18576,378.921722 L614.110748,378.921722 C613.456777,378.921722 612.950918,379.079839 612.59317,379.396072 C612.235423,379.712306 612.034973,380.175476 611.991821,380.785583 Z" id="list"></path>
        </g>
    </g>
</svg>