<?xml version="1.0" encoding="UTF-8"?>
<svg width="33px" height="33px" viewBox="0 0 33 33" version="1.1" xmlns="http://www.w3.org/2000/svg" xmlns:xlink="http://www.w3.org/1999/xlink">
    <title>mint</title>
    <g id="Page-1" stroke="none" stroke-width="1" fill="none" fill-rule="evenodd">
        <g id="Artboard-Copy-3" transform="translate(-416.000000, -201.000000)" fill="#F97900" fill-rule="nonzero">
            <path d="M422.314575,232.785706 C422.660187,233.052277 423.04715,233.147148 423.475464,233.07032 C423.903778,232.993492 424.363144,232.777847 424.853561,232.423386 L432.470978,226.821732 L440.095032,232.423386 C440.587128,232.777847 441.047333,232.993492 441.475647,233.07032 C441.903961,233.147148 442.291,233.052277 442.636765,232.785706 C442.980698,232.5289 443.188866,232.18676 443.261269,231.759285 C443.333672,231.33181 443.269928,230.832047 443.070038,230.259995 L440.059555,221.309799 L447.744949,215.78688 C448.245132,215.434097 448.592957,215.065331 448.788422,214.68058 C448.983887,214.29583 449.013184,213.897766 448.876312,213.486389 C448.741119,213.082794 448.482063,212.781471 448.099144,212.58242 C447.716225,212.383369 447.218292,212.288727 446.605347,212.298492 L437.179764,212.359833 L434.315765,203.360428 C434.125641,202.774948 433.87841,202.330269 433.574074,202.02639 C433.269737,201.722511 432.902039,201.570572 432.470978,201.570572 C432.046173,201.570572 431.681602,201.722511 431.377266,202.02639 C431.072929,202.330269 430.825699,202.774948 430.635574,203.360428 L427.771576,212.359833 L418.343246,212.298492 C417.732132,212.288727 417.235077,212.383369 416.852081,212.58242 C416.469086,212.781471 416.210068,213.081879 416.075027,213.483643 C415.938156,213.895172 415.967873,214.293732 416.164177,214.679321 C416.360481,215.064911 416.707886,215.434097 417.20639,215.78688 L424.891556,221.309799 L421.881073,230.259995 C421.681183,230.832047 421.617897,231.33181 421.691216,231.759285 C421.764534,232.18676 421.972321,232.5289 422.314575,232.785706 Z" id="mint"></path>
        </g>
    </g>
</svg>