<?xml version="1.0" encoding="UTF-8"?>
<svg width="41px" height="26px" viewBox="0 0 41 26" version="1.1" xmlns="http://www.w3.org/2000/svg" xmlns:xlink="http://www.w3.org/1999/xlink">
    <title>play</title>
    <g id="Page-1" stroke="none" stroke-width="1" fill="none" fill-rule="evenodd">
        <g id="Artboard-Copy-3" transform="translate(-231.000000, -381.000000)" fill="#FF00C9" fill-rule="nonzero">
            <path d="M240.344849,391.469727 C240.344849,391.102437 240.455114,390.809738 240.675644,390.591629 C240.896174,390.37352 241.19927,390.264465 241.58493,390.264465 L243.892914,390.264465 L243.892914,388.032318 C243.892914,387.652639 244.000295,387.350825 244.215057,387.126877 C244.42982,386.902929 244.723409,386.790955 245.095825,386.790955 C245.466532,386.790955 245.759267,386.902929 245.97403,387.126877 C246.188792,387.350825 246.296173,387.652639 246.296173,388.032318 L246.296173,390.264465 L248.461456,390.264465 C248.874318,390.264465 249.198705,390.37352 249.434616,390.591629 C249.670527,390.809738 249.788483,391.102437 249.788483,391.469727 C249.788483,391.851969 249.670527,392.154388 249.434616,392.376984 C249.198705,392.599579 248.874318,392.710876 248.461456,392.710876 L246.296173,392.710876 L246.296173,394.94046 C246.296173,395.320282 246.188792,395.624018 245.97403,395.851669 C245.759267,396.07932 245.466532,396.193146 245.095825,396.193146 C244.723409,396.193146 244.42982,396.07932 244.215057,395.851669 C244.000295,395.624018 243.892914,395.320282 243.892914,394.94046 L243.892914,392.710876 L241.58493,392.710876 C241.19927,392.710876 240.896174,392.599579 240.675644,392.376984 C240.455114,392.154388 240.344849,391.851969 240.344849,391.469727 Z M253.839417,393.431427 C253.839417,392.858775 254.03627,392.37645 254.429977,391.984451 C254.823685,391.592453 255.301453,391.396454 255.863281,391.396454 C256.435933,391.396454 256.916407,391.592453 257.304703,391.984451 C257.692998,392.37645 257.887146,392.858775 257.887146,393.431427 C257.887146,394.000804 257.692998,394.47964 257.304703,394.867935 C256.916407,395.256231 256.435933,395.450378 255.863281,395.450378 C255.301453,395.450378 254.823685,395.256231 254.429977,394.867935 C254.03627,394.47964 253.839417,394.000804 253.839417,393.431427 Z M257.910217,389.329437 C257.910217,388.756643 258.104792,388.274246 258.493942,387.882248 C258.883092,387.49025 259.359436,387.29425 259.922974,387.29425 C260.493917,387.29425 260.973536,387.49025 261.361832,387.882248 C261.750127,388.274246 261.944275,388.756643 261.944275,389.329437 C261.944275,389.90038 261.750127,390.377721 261.361832,390.761459 C260.973536,391.145198 260.493917,391.337067 259.922974,391.337067 C259.359436,391.337067 258.883092,391.145198 258.493942,390.761459 C258.104792,390.377721 257.910217,389.90038 257.910217,389.329437 Z M236.828186,406.749969 C237.842183,406.749969 238.71462,406.56426 239.445496,406.192841 C240.176371,405.821421 240.846436,405.279388 241.455688,404.566742 L243.885223,401.733032 C244.064097,401.52596 244.245855,401.375214 244.430496,401.280792 C244.615138,401.186371 244.811066,401.13916 245.01828,401.13916 L257.981567,401.13916 C258.190348,401.13916 258.386668,401.186371 258.570526,401.280792 C258.754384,401.375214 258.93575,401.52596 259.114624,401.733032 L261.546722,404.566742 C262.155975,405.277679 262.825612,405.819285 263.555634,406.191559 C264.285655,406.563833 265.157664,406.749969 266.171661,406.749969 C267.224111,406.749969 268.152695,406.53097 268.957413,406.092972 C269.762131,405.654973 270.389328,405.029877 270.839005,404.217682 C271.288681,403.405487 271.513519,402.446177 271.513519,401.339752 C271.513519,400.6244 271.438751,399.86141 271.289215,399.050781 C271.139679,398.240153 270.930257,397.38445 270.66095,396.483673 C270.384094,395.539886 270.044718,394.514033 269.642822,393.406113 C269.240926,392.298192 268.809443,391.181407 268.348373,390.055756 C267.887304,388.930105 267.42513,387.876801 266.961853,386.895844 C266.56665,386.070546 266.190425,385.374847 265.833176,384.808746 C265.475927,384.242645 265.01945,383.776805 264.463745,383.411224 C263.90804,383.045644 263.130381,382.750132 262.130768,382.524689 C260.817128,382.226329 259.266581,381.98643 257.479126,381.804993 C255.691671,381.623556 253.700918,381.532837 251.506866,381.532837 C249.310964,381.532837 247.317825,381.623556 245.527451,381.804993 C243.737076,381.98643 242.184285,382.226329 240.86908,382.524689 C239.869609,382.750132 239.092377,383.045644 238.537384,383.411224 C237.982391,383.776805 237.525879,384.242645 237.167847,384.808746 C236.809814,385.374847 236.43398,386.070546 236.040344,386.895844 C235.5755,387.876801 235.112935,388.930105 234.652649,390.055756 C234.192362,391.181407 233.761307,392.298192 233.359482,393.406113 C232.957657,394.514033 232.618317,395.539886 232.341461,396.483673 C232.072154,397.38445 231.862305,398.240153 231.711914,399.050781 C231.561523,399.86141 231.486328,400.6244 231.486328,401.339752 C231.486328,402.446177 231.711166,403.405487 232.160843,404.217682 C232.610519,405.029877 233.237717,405.654973 234.042435,406.092972 C234.847153,406.53097 235.775736,406.749969 236.828186,406.749969 Z" id="play"></path>
        </g>
    </g>
</svg>