<?xml version="1.0" encoding="UTF-8"?>
<svg width="31px" height="30px" viewBox="0 0 31 30" version="1.1" xmlns="http://www.w3.org/2000/svg" xmlns:xlink="http://www.w3.org/1999/xlink">
    <title>post</title>
    <g id="Page-1" stroke="none" stroke-width="1" fill="none" fill-rule="evenodd">
        <g id="Artboard-Copy-3" transform="translate(-418.000000, -378.000000)" fill="#00966F" fill-rule="nonzero">
            <path d="M427.117734,407.954856 L438.001523,407.954856 C439.388242,407.954856 440.608945,407.837668 441.663632,407.603293 C442.71832,407.368918 443.626523,406.870871 444.388242,406.109153 C445.140195,405.3572 445.633359,404.458762 445.867734,403.41384 C446.102109,402.368918 446.219296,401.148215 446.219296,399.751731 L446.219296,390.09841 C445.369687,390.459739 444.466367,390.640403 443.509335,390.640403 C442.513242,390.640403 441.575742,390.452414 440.696835,390.076438 C439.817929,389.700461 439.044003,389.178 438.375058,388.509055 C437.706113,387.84011 437.18121,387.066184 436.800351,386.187278 C436.419492,385.308371 436.229062,384.365989 436.229062,383.360129 C436.229062,382.412864 436.409726,381.514426 436.771054,380.664817 L427.103085,380.664817 C425.726132,380.664817 424.512753,380.784446 423.462949,381.023703 C422.413144,381.262961 421.507382,381.76345 420.745663,382.525168 C419.99371,383.277121 419.500546,384.173118 419.266171,385.213157 C419.031796,386.253196 418.914609,387.466575 418.914609,388.853293 L418.914609,399.751731 C418.914609,401.148215 419.029355,402.368918 419.258847,403.41384 C419.488339,404.458762 419.983945,405.3572 420.745663,406.109153 C421.507382,406.870871 422.413144,407.368918 423.462949,407.603293 C424.512753,407.837668 425.731015,407.954856 427.117734,407.954856 Z M443.523984,388.399192 C444.441952,388.399192 445.284238,388.172141 446.050839,387.718039 C446.817441,387.263938 447.427792,386.653586 447.881894,385.886985 C448.335995,385.120383 448.563046,384.278098 448.563046,383.360129 C448.563046,382.44216 448.335995,381.599875 447.881894,380.833274 C447.427792,380.066672 446.817441,379.456321 446.050839,379.002219 C445.284238,378.548118 444.441952,378.321067 443.523984,378.321067 C442.596249,378.321067 441.751523,378.548118 440.989804,379.002219 C440.228085,379.456321 439.620175,380.066672 439.166074,380.833274 C438.711972,381.599875 438.484921,382.44216 438.484921,383.360129 C438.484921,384.278098 438.711972,385.120383 439.166074,385.886985 C439.620175,386.653586 440.228085,387.263938 440.989804,387.718039 C441.751523,388.172141 442.596249,388.399192 443.523984,388.399192 Z" id="post"></path>
        </g>
    </g>
</svg>