<?xml version="1.0" encoding="UTF-8"?>
<svg width="32px" height="25px" viewBox="0 0 32 25" version="1.1" xmlns="http://www.w3.org/2000/svg" xmlns:xlink="http://www.w3.org/1999/xlink">
    <title>send</title>
    <g id="Page-1" stroke="none" stroke-width="1" fill="none" fill-rule="evenodd">
        <g id="Artboard-Copy-3" transform="translate(-230.000000, -470.000000)" fill="#0072FF" fill-rule="nonzero">
            <path d="M245.848175,483.583038 C246.40331,483.583038 246.977173,483.286743 247.569763,482.694153 L259.489502,470.860077 C258.959005,470.390391 258.021413,470.155548 256.676727,470.155548 L234.632324,470.155548 C233.453125,470.155548 232.625977,470.375509 232.150879,470.81543 L244.126373,482.694153 C244.713125,483.286743 245.287059,483.583038 245.848175,483.583038 Z M230.853119,491.829315 L240.667175,482.102203 L230.865936,472.43277 C230.612864,472.869843 230.486328,473.588328 230.486328,474.588226 L230.486328,489.69693 C230.486328,490.691559 230.608592,491.402354 230.853119,491.829315 Z M234.974762,494.140717 L257.019165,494.140717 C258.211894,494.140717 259.057841,493.911997 259.557007,493.454559 L249.554321,483.527283 L248.712006,484.380707 C247.779755,485.274078 246.825144,485.720764 245.848175,485.720764 C244.863515,485.720764 243.907979,485.274078 242.981567,484.380707 L242.130707,483.53241 L232.150238,493.443237 C232.704803,493.908223 233.646311,494.140717 234.974762,494.140717 Z M260.812042,491.818207 C261.049164,491.383698 261.167725,490.676605 261.167725,489.69693 L261.167725,474.588226 C261.167725,473.595734 261.044891,472.888428 260.799225,472.466309 L251.017853,482.102203 L260.812042,491.818207 Z" id="send"></path>
        </g>
    </g>
</svg>