<?xml version="1.0" encoding="UTF-8"?>
<svg width="29px" height="29px" viewBox="0 0 29 29" version="1.1" xmlns="http://www.w3.org/2000/svg" xmlns:xlink="http://www.w3.org/1999/xlink">
    <title>sign</title>
    <g id="Page-1" stroke="none" stroke-width="1" fill="none" fill-rule="evenodd">
        <g id="Artboard-Copy-3" transform="translate(-420.000000, -469.000000)" fill="#404040" fill-rule="nonzero">
            <path d="M434.570312,497.265625 C436.502604,497.265625 438.320964,496.898763 440.025391,496.165039 C441.729818,495.431315 443.233724,494.41276 444.537109,493.109375 C445.840495,491.80599 446.861328,490.302083 447.599609,488.597656 C448.337891,486.893229 448.707031,485.07487 448.707031,483.142578 C448.707031,481.210286 448.337891,479.391927 447.599609,477.6875 C446.861328,475.983073 445.840495,474.481445 444.537109,473.182617 C443.233724,471.883789 441.729818,470.865234 440.025391,470.126953 C438.320964,469.388672 436.498047,469.019531 434.556641,469.019531 C432.624349,469.019531 430.808268,469.388672 429.108398,470.126953 C427.408529,470.865234 425.90918,471.883789 424.610352,473.182617 C423.311523,474.481445 422.292969,475.983073 421.554688,477.6875 C420.816406,479.391927 420.447266,481.210286 420.447266,483.142578 C420.447266,485.07487 420.816406,486.893229 421.554688,488.597656 C422.292969,490.302083 423.311523,491.80599 424.610352,493.109375 C425.90918,494.41276 427.410807,495.431315 429.115234,496.165039 C430.819661,496.898763 432.638021,497.265625 434.570312,497.265625 Z M430.195312,489.253906 L428.226562,489.978516 C428.035156,490.051432 427.859701,490.012695 427.700195,489.862305 C427.54069,489.711914 427.50651,489.531901 427.597656,489.322266 L428.390625,487.421875 L437.441406,478.371094 L439.259766,480.189453 L430.195312,489.253906 Z M440.121094,479.341797 L438.302734,477.523438 L439.341797,476.484375 C439.578776,476.247396 439.833984,476.12207 440.107422,476.108398 C440.380859,476.094727 440.636068,476.201823 440.873047,476.429688 L441.214844,476.771484 C441.442708,476.999349 441.552083,477.252279 441.542969,477.530273 C441.533854,477.808268 441.40625,478.070312 441.160156,478.316406 L440.121094,479.341797 Z" id="sign"></path>
        </g>
    </g>
</svg>