<?xml version="1.0" encoding="UTF-8"?>
<svg width="32px" height="31px" viewBox="0 0 32 31" version="1.1" xmlns="http://www.w3.org/2000/svg" xmlns:xlink="http://www.w3.org/1999/xlink">
    <title>vote</title>
    <g id="Page-1" stroke="none" stroke-width="1" fill="none" fill-rule="evenodd">
        <g id="Artboard-Copy-3" transform="translate(-235.000000, -204.000000)" fill="#1DAA10" fill-rule="nonzero">
            <path d="M241.945729,211.35343 C240.007329,211.35343 238.526784,211.849395 237.504094,212.841323 C236.481404,213.833251 235.970059,215.261885 235.970059,217.127227 L235.970059,219.051825 C235.970059,220.919913 236.481404,222.349234 237.504094,223.339789 C238.526784,224.330344 240.007329,224.825621 241.945729,224.825621 L244.691831,224.825621 L244.691831,211.35343 L241.945729,211.35343 Z M246.71098,224.838805 C248.050763,224.999343 249.399507,225.246054 250.757211,225.57894 C252.114915,225.911826 253.462148,226.329238 254.798909,226.831176 C256.135671,227.333113 257.451077,227.919783 258.74513,228.591185 C258.736752,228.528151 258.731191,228.461581 258.728444,228.391474 C258.725697,228.321368 258.724324,228.253424 258.724324,228.187644 L258.724324,207.886557 C258.724324,207.838355 258.725011,207.790049 258.726384,207.741641 C258.727757,207.693232 258.729817,207.644927 258.732564,207.596724 C257.474355,208.265792 256.152699,208.857096 254.767598,209.370639 C253.382497,209.884181 252.001206,210.308699 250.623727,210.644194 C249.246247,210.979689 247.941998,211.216101 246.71098,211.35343 L246.71098,224.838805 Z M260.743268,228.713546 C260.743268,229.300215 260.873525,229.823062 261.134038,230.282084 C261.394551,230.741107 261.752809,231.101561 262.20881,231.363448 C262.664811,231.625334 263.186147,231.756278 263.772817,231.756278 C264.368276,231.756278 264.895516,231.625334 265.354539,231.363448 C265.813561,231.101561 266.173329,230.741107 266.433843,230.282084 C266.694356,229.823062 266.824613,229.300215 266.824613,228.713546 L266.824613,207.369513 C266.824613,206.774054 266.694356,206.246848 266.433843,205.787894 C266.173329,205.32894 265.813561,204.968486 265.354539,204.70653 C264.895516,204.444575 264.368276,204.313597 263.772817,204.313597 C263.186147,204.313597 262.664811,204.444575 262.20881,204.70653 C261.752809,204.968486 261.394551,205.32894 261.134038,205.787894 C260.873525,206.246848 260.743268,206.774054 260.743268,207.369513 L260.743268,228.713546 Z M247.64578,234.428839 C248.244122,234.428839 248.776582,234.283442 249.243157,233.992648 C249.709733,233.701853 250.04667,233.291205 250.253968,232.760703 C250.461266,232.2302 250.47627,231.602469 250.298978,230.877509 L249.403935,227.039641 C249.111836,226.92401 248.708398,226.825682 248.19362,226.744658 C247.678842,226.663634 247.126332,226.602866 246.536092,226.562354 C245.945851,226.521842 245.388913,226.498564 244.865277,226.492522 L241.639829,226.492522 L244.298589,231.956298 C244.686269,232.742369 245.126031,233.350978 245.617875,233.782122 C246.109719,234.213267 246.785687,234.428839 247.64578,234.428839 Z" id="vote"></path>
        </g>
    </g>
</svg>