<?xml version="1.0" encoding="UTF-8"?>
<svg width="43px" height="22px" viewBox="0 0 43 22" version="1.1" xmlns="http://www.w3.org/2000/svg" xmlns:xlink="http://www.w3.org/1999/xlink">
    <title>community</title>
    <g id="Page-1" stroke="none" stroke-width="1" fill="none" fill-rule="evenodd">
        <g id="Artboard" transform="translate(-93.000000, -439.000000)" fill="#D40000" fill-rule="nonzero">
            <path d="M107.591397,460.279785 L121.505948,460.279785 C122.464281,460.279785 123.130623,460.135661 123.504972,459.847412 C123.87932,459.559163 124.066495,459.149251 124.066495,458.617676 C124.066495,457.898926 123.845629,457.142741 123.403897,456.349121 C122.962166,455.555501 122.325772,454.810547 121.494718,454.114258 C120.663663,453.417969 119.664151,452.854574 118.496182,452.424072 C117.328214,451.993571 116.014249,451.77832 114.554288,451.77832 C113.101814,451.77832 111.789721,451.993571 110.618009,452.424072 C109.446296,452.854574 108.444913,453.417969 107.613858,454.114258 C106.782804,454.810547 106.14641,455.555501 105.704679,456.349121 C105.262947,457.142741 105.042081,457.898926 105.042081,458.617676 C105.042081,459.149251 105.229255,459.559163 105.603604,459.847412 C105.977953,460.135661 106.640551,460.279785 107.591397,460.279785 Z M114.554288,449.790527 C115.385343,449.790527 116.145271,449.569661 116.834073,449.12793 C117.522875,448.686198 118.07504,448.08724 118.490567,447.331055 C118.906095,446.57487 119.113858,445.725098 119.113858,444.781738 C119.113858,443.868327 118.906095,443.041016 118.490567,442.299805 C118.07504,441.558594 117.522875,440.972738 116.834073,440.542236 C116.145271,440.111735 115.385343,439.896484 114.554288,439.896484 C113.73072,439.896484 112.974535,440.115479 112.285733,440.553467 C111.596931,440.991455 111.042895,441.581055 110.623624,442.322266 C110.204353,443.063477 109.998461,443.890788 110.005948,444.804199 C110.005948,445.732585 110.213712,446.57487 110.629239,447.331055 C111.044766,448.08724 111.596931,448.686198 112.285733,449.12793 C112.974535,449.569661 113.73072,449.790527 114.554288,449.790527 Z M95.3838778,460.279785 L103.716886,460.279785 C103.417406,459.84554 103.262052,459.327067 103.250821,458.724365 C103.239591,458.121663 103.355639,457.483398 103.598966,456.80957 C103.842292,456.135742 104.196052,455.47876 104.660245,454.838623 C105.124438,454.198486 105.682218,453.620117 106.333585,453.103516 C105.727139,452.714193 105.021492,452.390381 104.216641,452.13208 C103.411791,451.873779 102.515225,451.744629 101.526944,451.744629 C100.276619,451.744629 99.144213,451.948649 98.1297274,452.356689 C97.1152417,452.76473 96.2430086,453.300049 95.5130281,453.962646 C94.7830477,454.625244 94.2215242,455.347738 93.8284578,456.130127 C93.4353914,456.912516 93.2388582,457.67806 93.2388582,458.426758 C93.2388582,459.010742 93.3998283,459.465576 93.7217684,459.79126 C94.0437085,460.116943 94.5977449,460.279785 95.3838778,460.279785 Z M101.526944,450.048828 C102.253181,450.048828 102.915779,449.854167 103.514737,449.464844 C104.113695,449.075521 104.592862,448.551432 104.952237,447.892578 C105.311612,447.233724 105.4913,446.496257 105.4913,445.680176 C105.4913,444.879069 105.30974,444.158447 104.946622,443.518311 C104.583503,442.878174 104.100593,442.369059 103.497891,441.990967 C102.89519,441.612874 102.238207,441.423828 101.526944,441.423828 C100.815681,441.423828 100.158699,441.614746 99.5559969,441.996582 C98.9532951,442.378418 98.4685132,442.891276 98.1016512,443.535156 C97.7347892,444.179036 97.5551017,444.90153 97.5625887,445.702637 C97.5625887,446.51123 97.7422762,447.243083 98.1016512,447.898193 C98.4610262,448.553304 98.9420646,449.075521 99.5447664,449.464844 C100.147468,449.854167 100.808194,450.048828 101.526944,450.048828 Z M133.713468,460.279785 C134.4996,460.279785 135.051765,460.116943 135.369962,459.79126 C135.688158,459.465576 135.847257,459.010742 135.847257,458.426758 C135.847257,457.67806 135.652595,456.912516 135.263272,456.130127 C134.873949,455.347738 134.314298,454.625244 133.584317,453.962646 C132.854337,453.300049 131.980232,452.76473 130.962003,452.356689 C129.943774,451.948649 128.81324,451.744629 127.570401,451.744629 C126.574633,451.744629 125.676195,451.873779 124.875089,452.13208 C124.073982,452.390381 123.366462,452.714193 122.75253,453.103516 C123.403897,453.620117 123.963549,454.198486 124.431485,454.838623 C124.899421,455.47876 125.255053,456.135742 125.49838,456.80957 C125.741707,457.483398 125.857755,458.121663 125.846524,458.724365 C125.835294,459.327067 125.676195,459.84554 125.369229,460.279785 L133.713468,460.279785 Z M127.570401,450.048828 C128.289151,450.048828 128.948005,449.854167 129.546964,449.464844 C130.145922,449.075521 130.625089,448.553304 130.984464,447.898193 C131.343839,447.243083 131.52727,446.51123 131.534757,445.702637 C131.534757,444.90153 131.353197,444.179036 130.990079,443.535156 C130.62696,442.891276 130.14405,442.378418 129.541348,441.996582 C128.938647,441.614746 128.281664,441.423828 127.570401,441.423828 C126.851651,441.423828 126.190925,441.612874 125.588223,441.990967 C124.985522,442.369059 124.502611,442.878174 124.139493,443.518311 C123.776374,444.158447 123.594815,444.879069 123.594815,445.680176 C123.594815,446.496257 123.776374,447.233724 124.139493,447.892578 C124.502611,448.551432 124.98365,449.075521 125.582608,449.464844 C126.181567,449.854167 126.844164,450.048828 127.570401,450.048828 Z" id="community"></path>
        </g>
    </g>
</svg>