<?xml version="1.0" encoding="UTF-8"?>
<svg width="19px" height="28px" viewBox="0 0 19 28" version="1.1" xmlns="http://www.w3.org/2000/svg" xmlns:xlink="http://www.w3.org/1999/xlink">
    <title>lock</title>
    <g id="Page-1" stroke="none" stroke-width="1" fill="none" fill-rule="evenodd">
        <g id="Artboard" transform="translate(-789.000000, -426.000000)" fill="#515151" fill-rule="nonzero">
            <path d="M792.349561,453.059692 L805.295459,453.059692 C806.174837,453.059692 806.829838,452.835315 807.260461,452.38656 C807.691085,451.937805 807.906396,451.237476 807.906396,450.285571 L807.906396,440.304175 C807.906396,439.361336 807.691085,438.66554 807.260461,438.216785 C806.829838,437.76803 806.174837,437.543652 805.295459,437.543652 L792.621533,437.57085 C791.751221,437.57085 791.053158,437.792961 790.527344,438.237183 C790.00153,438.681405 789.738623,439.370402 789.738623,440.304175 L789.738623,450.285571 C789.738623,451.237476 789.956201,451.937805 790.391357,452.38656 C790.826514,452.835315 791.479248,453.059692 792.349561,453.059692 Z M791.900806,438.454761 L794.090186,438.454761 L794.090186,433.844824 C794.090186,432.702539 794.307764,431.743835 794.74292,430.968713 C795.178076,430.193591 795.756018,429.60885 796.476746,429.21449 C797.197473,428.820129 797.979395,428.622949 798.82251,428.622949 C799.674691,428.622949 800.458879,428.820129 801.175073,429.21449 C801.891268,429.60885 802.466943,430.193591 802.9021,430.968713 C803.337256,431.743835 803.554834,432.702539 803.554834,433.844824 L803.554834,438.454761 L805.744214,438.454761 L805.744214,434.130396 C805.744214,432.852124 805.553833,431.737036 805.173071,430.785132 C804.79231,429.833228 804.275562,429.04224 803.622827,428.41217 C802.970093,427.7821 802.228967,427.310681 801.399451,426.997913 C800.569934,426.685144 799.710954,426.52876 798.82251,426.52876 C797.934066,426.52876 797.077352,426.685144 796.252368,426.997913 C795.427384,427.310681 794.688525,427.7821 794.035791,428.41217 C793.383057,429.04224 792.864042,429.833228 792.478748,430.785132 C792.093453,431.737036 791.900806,432.852124 791.900806,434.130396 L791.900806,438.454761 Z" id="lock"></path>
        </g>
    </g>
</svg>