<?xml version="1.0" encoding="UTF-8"?>
<svg width="30px" height="26px" viewBox="0 0 30 26" version="1.1" xmlns="http://www.w3.org/2000/svg" xmlns:xlink="http://www.w3.org/1999/xlink">
    <title>puzzle</title>
    <g id="Page-1" stroke="none" stroke-width="1" fill="none" fill-rule="evenodd">
        <g id="Artboard" transform="translate(-430.000000, -274.000000)" fill="#1E7CE6" fill-rule="nonzero">
            <path d="M430.028613,295.26394 C430.028613,296.503182 430.342582,297.44093 430.970519,298.077185 C431.598457,298.71344 432.527888,299.031567 433.758813,299.031567 L449.191113,299.031567 C450.438671,299.031567 451.380578,298.717598 452.016833,298.089661 C452.653088,297.461723 452.971215,296.53645 452.971215,295.313843 L452.971215,290.049146 C452.971215,289.92439 453.01488,289.841219 453.102209,289.799634 C453.189538,289.758049 453.29558,289.787158 453.420336,289.886963 C453.653214,290.061621 453.898567,290.219645 454.156396,290.361035 C454.414225,290.502425 454.694925,290.616785 454.998498,290.704114 C455.30207,290.791443 455.632674,290.835107 455.990307,290.835107 C456.697257,290.835107 457.335591,290.666687 457.905309,290.329846 C458.475028,289.993005 458.926228,289.535567 459.25891,288.957532 C459.591593,288.379496 459.757934,287.732845 459.757934,287.017578 C459.757934,286.310628 459.591593,285.668136 459.25891,285.0901 C458.926228,284.512065 458.475028,284.054626 457.905309,283.717786 C457.335591,283.380945 456.697257,283.212524 455.990307,283.212524 C455.632674,283.212524 455.30207,283.256189 454.998498,283.343518 C454.694925,283.430847 454.414225,283.545207 454.156396,283.686597 C453.898567,283.827987 453.653214,283.986011 453.420336,284.160669 C453.29558,284.260474 453.189538,284.289583 453.102209,284.247998 C453.01488,284.206413 452.971215,284.123242 452.971215,283.998486 L452.971215,278.633984 C452.971215,277.411377 452.653088,276.486104 452.016833,275.858167 C451.380578,275.230229 450.438671,274.91626 449.191113,274.91626 L433.758813,274.91626 C432.527888,274.91626 431.598457,275.234387 430.970519,275.870642 C430.342582,276.506897 430.028613,277.444645 430.028613,278.683887 L430.028613,284.035913 C430.028613,284.443449 430.165844,284.769893 430.440307,285.015247 C430.71477,285.2606 431.039135,285.383276 431.413403,285.383276 C431.621329,285.383276 431.831335,285.339612 432.04342,285.252283 C432.255505,285.164954 432.457193,285.025643 432.648486,284.834351 C432.839778,284.651375 433.056021,284.464242 433.297216,284.272949 C433.538411,284.081657 433.829508,283.919474 434.170507,283.786401 C434.511507,283.653328 434.923201,283.586792 435.40559,283.586792 C436.029369,283.586792 436.597009,283.736499 437.108508,284.035913 C437.620007,284.335327 438.025463,284.742863 438.324877,285.258521 C438.624291,285.774178 438.773998,286.352214 438.773998,286.992627 C438.773998,287.624723 438.624291,288.1986 438.324877,288.714258 C438.025463,289.229915 437.620007,289.63953 437.108508,289.943103 C436.597009,290.246676 436.029369,290.398462 435.40559,290.398462 C434.923201,290.398462 434.511507,290.331925 434.170507,290.198853 C433.829508,290.06578 433.538411,289.901518 433.297216,289.706067 C433.056021,289.510616 432.839778,289.321403 432.648486,289.138428 C432.457193,288.955452 432.255505,288.8203 432.04342,288.732971 C431.831335,288.645642 431.621329,288.601978 431.413403,288.601978 C431.039135,288.601978 430.71477,288.724654 430.440307,288.970007 C430.165844,289.215361 430.028613,289.541805 430.028613,289.949341 L430.028613,295.26394 Z" id="puzzle"></path>
        </g>
    </g>
</svg>