<?xml version="1.0" encoding="UTF-8"?>
<svg width="28px" height="30px" viewBox="0 0 28 30" version="1.1" xmlns="http://www.w3.org/2000/svg" xmlns:xlink="http://www.w3.org/1999/xlink">
    <title>stack</title>
    <g id="Page-1" stroke="none" stroke-width="1" fill="none" fill-rule="evenodd">
        <g id="Artboard" transform="translate(-429.000000, -428.000000)" fill="#FF7A24" fill-rule="nonzero">
            <path d="M442.881298,445.041443 C443.157929,445.041443 443.436767,444.992418 443.717812,444.894368 C443.998857,444.796318 444.310151,444.648021 444.651697,444.449477 L454.779697,438.576055 C455.335404,438.250399 455.738434,437.937101 455.988787,437.636161 C456.23914,437.335221 456.364317,436.974392 456.364317,436.553674 C456.364317,436.139881 456.23914,435.782922 455.988787,435.482797 C455.738434,435.182672 455.335404,434.868967 454.779697,434.541681 L444.651697,428.668259 C444.310151,428.469851 443.998857,428.321622 443.717812,428.223572 C443.436767,428.125522 443.157929,428.076497 442.881298,428.076497 C442.597469,428.076497 442.316832,428.125522 442.039386,428.223572 C441.76194,428.321622 441.448845,428.469851 441.100103,428.668259 L430.972102,434.541681 C430.416395,434.868967 430.013399,435.182672 429.763114,435.482797 C429.512829,435.782922 429.387686,436.139881 429.387686,436.553674 C429.387686,436.974392 429.512829,437.335221 429.763114,437.636161 C430.013399,437.937101 430.416395,438.250399 430.972102,438.576055 L441.100103,444.449477 C441.448845,444.648021 441.76194,444.796318 442.039386,444.894368 C442.316832,444.992418 442.597469,445.041443 442.881298,445.041443 Z M442.881298,451.507034 C443.135114,451.507034 443.382989,451.45088 443.624922,451.33857 C443.866856,451.226261 444.143657,451.081563 444.455325,450.904475 L455.422182,444.447643 C455.738875,444.258469 455.976837,444.039045 456.136066,443.789371 C456.295295,443.539697 456.37491,443.273489 456.37491,442.990746 C456.37491,442.675004 456.287351,442.396709 456.112232,442.155862 C455.937114,441.915015 455.735956,441.730424 455.508757,441.60209 L443.620543,448.488332 C443.473875,448.570765 443.340924,448.636935 443.221689,448.686843 C443.102453,448.73675 442.98899,448.761704 442.881298,448.761704 C442.766408,448.761704 442.649346,448.73675 442.530111,448.686843 C442.410875,448.636935 442.277992,448.570765 442.13146,448.488332 L430.243043,441.60209 C430.017473,441.730424 429.816722,441.915015 429.640789,442.155862 C429.464856,442.396709 429.37689,442.675004 429.37689,442.990746 C429.37689,443.273489 429.458677,443.539697 429.622252,443.789371 C429.785827,444.039045 430.025146,444.258469 430.34021,444.447643 L441.296474,450.904475 C441.608143,451.081563 441.884978,451.226261 442.126979,451.33857 C442.36898,451.45088 442.62042,451.507034 442.881298,451.507034 Z M442.881298,457.585383 C443.135114,457.585383 443.382989,457.531028 443.624922,457.422317 C443.866856,457.313607 444.143657,457.167109 444.455325,456.982824 L455.422182,450.525992 C455.730184,450.34388 455.965972,450.127987 456.129547,449.878312 C456.293122,449.628638 456.37491,449.358899 456.37491,449.069095 C456.37491,448.76055 456.287351,448.48582 456.112232,448.244905 C455.937114,448.00399 455.735956,447.815835 455.508757,447.680439 L443.620543,454.577477 C443.473875,454.65991 443.340924,454.72608 443.221689,454.775988 C443.102453,454.825895 442.98899,454.850849 442.881298,454.850849 C442.766408,454.850849 442.649346,454.825895 442.530111,454.775988 C442.410875,454.72608 442.277992,454.65991 442.13146,454.577477 L430.243043,447.680439 C430.017473,447.815835 429.816722,448.00399 429.640789,448.244905 C429.464856,448.48582 429.37689,448.76055 429.37689,449.069095 C429.37689,449.358899 429.458677,449.628638 429.622252,449.878312 C429.785827,450.127987 430.025146,450.34388 430.34021,450.525992 L441.296474,456.982824 C441.608143,457.167109 441.884978,457.313607 442.126979,457.422317 C442.36898,457.531028 442.62042,457.585383 442.881298,457.585383 Z" id="stack"></path>
        </g>
    </g>
</svg>