<?xml version="1.0" encoding="UTF-8"?>
<svg width="29px" height="26px" viewBox="0 0 29 26" version="1.1" xmlns="http://www.w3.org/2000/svg" xmlns:xlink="http://www.w3.org/1999/xlink">
    <title>swift</title>
    <g id="Page-1" stroke="none" stroke-width="1" fill="none" fill-rule="evenodd">
        <g id="Artboard" transform="translate(-88.000000, -274.000000)" fill="#F05037" fill-rule="nonzero">
            <path d="M88.5450195,290.448364 C88.9608724,291.130363 89.5097982,291.864343 90.1917969,292.650305 C90.8737956,293.436267 91.6722331,294.211833 92.5871094,294.977002 C93.5019857,295.742171 94.5229045,296.438725 95.6498657,297.066663 C96.776827,297.6946 97.9973551,298.195703 99.3114502,298.569971 C100.625545,298.944238 102.018652,299.131372 103.490771,299.131372 C104.430599,299.131372 105.249829,299.058598 105.948462,298.913049 C106.647095,298.767501 107.266715,298.584526 107.807324,298.364124 C108.347933,298.143722 108.849036,297.925399 109.310632,297.709155 C109.772229,297.492912 110.233826,297.312016 110.695422,297.166467 C111.157019,297.020919 111.66228,296.948145 112.211206,296.948145 C112.968058,296.948145 113.583521,297.083297 114.057593,297.353601 C114.531665,297.623905 114.899695,297.927478 115.161682,298.264319 C115.423669,298.60116 115.612882,298.869385 115.729321,299.068994 C115.779224,299.168799 115.841602,299.231177 115.916455,299.256128 C115.991309,299.281079 116.053687,299.202067 116.103589,299.019092 C116.136857,298.886019 116.165967,298.734233 116.190918,298.563733 C116.215869,298.393233 116.228345,298.199862 116.228345,297.983618 C116.228345,297.584399 116.170125,297.07498 116.053687,296.455359 C115.937248,295.835738 115.710608,295.145422 115.373767,294.384412 C115.036926,293.623401 114.535824,292.827043 113.870459,291.995337 C114.086702,291.379875 114.221855,290.760254 114.275916,290.136475 C114.329976,289.512695 114.357007,289.001196 114.357007,288.601978 C114.357007,287.695418 114.211458,286.649548 113.920361,285.464368 C113.629264,284.279187 113.148954,283.044104 112.479431,281.759119 C111.809908,280.474133 110.909587,279.21202 109.778467,277.972778 C108.647347,276.733537 107.233447,275.602417 105.536768,274.579419 C106.01084,275.244784 106.501546,276.026587 107.008887,276.924829 C107.516227,277.823071 107.948714,278.841911 108.306348,279.981348 C108.663981,281.120785 108.842798,282.393294 108.842798,283.798877 C108.842798,284.555729 108.759627,285.312581 108.593286,286.069434 C108.426945,286.826286 108.256445,287.412638 108.081787,287.828491 C107.341569,287.404321 106.493229,286.851237 105.536768,286.169238 C104.580306,285.48724 103.582259,284.734546 102.542627,283.911157 C101.502995,283.087769 100.477917,282.245667 99.467395,281.384851 C98.4568726,280.524036 97.5253621,279.700647 96.6728638,278.914685 C95.8203654,278.128723 95.1113363,277.436328 94.5457764,276.8375 C95.6768962,278.575765 96.9078206,280.249573 98.2385498,281.858923 C99.569279,283.468274 100.974862,285.096338 102.455298,286.743115 C100.459204,285.478923 98.5296468,284.141956 96.666626,282.732214 C94.8036051,281.322473 93.0071208,279.839958 91.2771729,278.284668 C92.9405843,280.704932 94.8410319,283.094006 96.9785156,285.451892 C99.1159993,287.809778 101.569531,290.107365 104.339111,292.344653 C103.815137,292.63575 103.26829,292.899817 102.698572,293.136853 C102.128853,293.373889 101.490519,293.563102 100.783569,293.704492 C100.076619,293.845882 99.2615479,293.916577 98.3383545,293.916577 C97.4900146,293.916577 96.6104858,293.82301 95.6997681,293.635876 C94.7890503,293.448743 93.8949666,293.192993 93.0175171,292.868628 C92.1400675,292.544263 91.3166789,292.174154 90.5473511,291.758301 C89.7780233,291.342448 89.1105794,290.905802 88.5450195,290.448364 Z" id="swift"></path>
        </g>
    </g>
</svg>