<?xml version="1.0" encoding="UTF-8"?>
<svg width="28px" height="28px" viewBox="0 0 28 28" version="1.1" xmlns="http://www.w3.org/2000/svg" xmlns:xlink="http://www.w3.org/1999/xlink">
    <title>world</title>
    <g id="Page-1" stroke="none" stroke-width="1" fill="none" fill-rule="evenodd">
        <g id="Artboard" transform="translate(-779.000000, -274.000000)" fill="#1FAA00" fill-rule="nonzero">
            <path d="M792.803625,299.992424 C793.72179,299.992424 794.583292,299.68191 795.38813,299.060882 C796.192968,298.439854 796.901012,297.57 797.512262,296.451321 C798.123512,295.332642 798.602388,294.021394 798.94889,292.517577 C799.295392,291.01376 799.468643,289.378995 799.468643,287.613281 C799.468643,285.847568 799.297158,284.208864 798.954187,282.697171 C798.611216,281.185477 798.134512,279.868491 797.524077,278.746214 C796.913641,277.623936 796.205631,276.751909 795.400047,276.130134 C794.594462,275.508359 793.728988,275.197472 792.803625,275.197472 C791.879891,275.197472 791.015198,275.508359 790.209546,276.130134 C789.403893,276.751909 788.697648,277.623936 788.090812,278.746214 C787.483975,279.868491 787.006898,281.185477 786.659581,282.697171 C786.312265,284.208864 786.138606,285.847568 786.138606,287.613281 C786.138606,289.378995 786.312265,291.01376 786.659581,292.517577 C787.006898,294.021394 787.48574,295.332642 788.096108,296.451321 C788.706475,297.57 789.414486,298.439854 790.220138,299.060882 C791.025791,299.68191 791.886953,299.992424 792.803625,299.992424 Z M792.803625,276.894333 C793.430085,276.894333 794.032101,277.1821 794.609672,277.757634 C795.187243,278.333168 795.70119,279.11862 796.151514,280.11399 C796.601837,281.109359 796.95737,282.251431 797.218112,283.540203 C797.478854,284.828976 797.609225,286.186668 797.609225,287.613281 C797.609225,289.025635 797.478854,290.370494 797.218112,291.647859 C796.95737,292.925224 796.601837,294.06295 796.151514,295.061036 C795.70119,296.059121 795.187243,296.845931 794.609672,297.421465 C794.032101,297.996999 793.430085,298.284766 792.803625,298.284766 C792.178658,298.284766 791.577423,297.996999 790.99992,297.421465 C790.422417,296.845931 789.90847,296.059495 789.458078,295.062156 C789.007687,294.064817 788.65212,292.927499 788.391378,291.650202 C788.130636,290.372905 788.000265,289.027264 788.000265,287.613281 C788.000265,286.186668 788.130636,284.828976 788.391378,283.540203 C788.65212,282.251431 789.007687,281.109359 789.458078,280.11399 C789.90847,279.11862 790.422417,278.333168 790.99992,277.757634 C791.577423,277.1821 792.178658,276.894333 792.803625,276.894333 Z M791.898768,275.377547 L791.898768,299.747163 L793.721519,299.747163 L793.721519,275.377547 L791.898768,275.377547 Z M792.803625,292.159362 C791.44437,292.159362 790.155496,292.26977 788.937001,292.490586 C787.718507,292.711402 786.625053,293.027043 785.656641,293.437508 C784.688228,293.847973 783.903828,294.329701 783.303442,294.882692 L784.701469,296.038921 C785.263966,295.601363 785.950756,295.228345 786.761841,294.919868 C787.572926,294.611391 788.488749,294.377945 789.50931,294.219531 C790.529871,294.061116 791.627976,293.981909 792.803625,293.981909 C793.980903,293.981909 795.079789,294.061116 796.100282,294.219531 C797.120775,294.377945 798.036598,294.611391 798.847751,294.919868 C799.658904,295.228345 800.344913,295.601363 800.905781,296.038921 L802.303807,294.882692 C801.704915,294.329701 800.920889,293.847973 799.951729,293.437508 C798.98257,293.027043 797.888708,292.711402 796.670146,292.490586 C795.451584,292.26977 794.162743,292.159362 792.803625,292.159362 Z M804.753154,286.669313 L780.856336,286.669313 L780.856336,288.492064 L804.753154,288.492064 L804.753154,286.669313 Z M792.803625,283.080238 C794.162743,283.080238 795.451584,282.96983 796.670146,282.749014 C797.888708,282.528197 798.98257,282.212557 799.951729,281.802092 C800.920889,281.391626 801.704915,280.909898 802.303807,280.356908 L800.905781,279.200679 C800.344913,279.638237 799.658904,280.011255 798.847751,280.319732 C798.036598,280.628209 797.120775,280.861654 796.100282,281.020069 C795.079789,281.178483 793.980903,281.25769 792.803625,281.25769 C791.629606,281.25769 790.532316,281.178483 789.511755,281.020069 C788.491193,280.861654 787.57537,280.628209 786.764286,280.319732 C785.953201,280.011255 785.265595,279.638237 784.701469,279.200679 L783.303442,280.356908 C783.903828,280.909898 784.688228,281.391626 785.656641,281.802092 C786.625053,282.212557 787.718507,282.528197 788.937001,282.749014 C790.155496,282.96983 791.44437,283.080238 792.803625,283.080238 Z M792.803625,301.059634 C794.647153,301.059634 796.381462,300.707971 798.006552,300.004646 C799.631641,299.301321 801.064093,298.329344 802.303909,297.088713 C803.543724,295.848083 804.515668,294.415631 805.21974,292.791356 C805.923812,291.167082 806.275848,289.43318 806.275848,287.589651 C806.275848,285.745987 805.923812,284.012017 805.21974,282.387743 C804.515668,280.763469 803.543724,279.331016 802.303909,278.090386 C801.064093,276.849755 799.629876,275.877812 798.001255,275.174555 C796.372635,274.471298 794.636561,274.119669 792.793032,274.119669 C790.950997,274.119669 789.217435,274.471298 787.592346,275.174555 C785.967257,275.877812 784.536162,276.849755 783.299063,278.090386 C782.061963,279.331016 781.091785,280.763469 780.388528,282.387743 C779.685271,284.012017 779.333643,285.745987 779.333643,287.589651 C779.333643,289.43318 779.685271,291.167082 780.388528,292.791356 C781.091785,294.415631 782.063729,295.848083 783.304359,297.088713 C784.544989,298.329344 785.977849,299.301321 787.602938,300.004646 C789.228028,300.707971 790.96159,301.059634 792.803625,301.059634 Z M792.803625,298.966159 C791.249628,298.966159 789.786077,298.668139 788.412971,298.072099 C787.039864,297.476058 785.830299,296.655026 784.784275,295.609002 C783.73825,294.562977 782.917591,293.353412 782.322298,291.980305 C781.727005,290.607199 781.429358,289.143648 781.429358,287.589651 C781.429358,286.035655 781.727005,284.572104 782.322298,283.198997 C782.917591,281.825891 783.736485,280.616326 784.778978,279.570301 C785.821472,278.524277 787.029238,277.703211 788.402276,277.107103 C789.775315,276.510994 791.2389,276.21294 792.793032,276.21294 C794.348658,276.21294 795.812617,276.510994 797.184908,277.107103 C798.5572,277.703211 799.768497,278.524277 800.818799,279.570301 C801.869101,280.616326 802.691899,281.825891 803.287192,283.198997 C803.882486,284.572104 804.180132,286.035655 804.180132,287.589651 C804.180132,289.143648 803.882486,290.607199 803.287192,291.980305 C802.691899,293.353412 801.870866,294.562977 800.824095,295.609002 C799.777324,296.655026 798.567793,297.476058 797.195501,298.072099 C795.823209,298.668139 794.359251,298.966159 792.803625,298.966159 Z" id="world"></path>
        </g>
    </g>
</svg>