<?xml version="1.0" encoding="UTF-8"?>
<svg width="36px" height="18px" viewBox="0 0 36 18" version="1.1" xmlns="http://www.w3.org/2000/svg" xmlns:xlink="http://www.w3.org/1999/xlink">
    <title>community</title>
    <g id="Page-1" stroke="none" stroke-width="1" fill="none" fill-rule="evenodd">
        <g id="Artboard" transform="translate(-271.000000, -177.000000)" fill="#FF3A00" fill-rule="nonzero">
            <path d="M283.503579,194.55082 L295.047927,194.55082 C295.81323,194.55082 296.347091,194.438184 296.649509,194.212914 C296.951927,193.987643 297.103136,193.662081 297.103136,193.236227 C297.103136,192.649906 296.921068,192.026554 296.556932,191.366172 C296.192796,190.705789 295.669736,190.090152 294.987752,189.519261 C294.305769,188.94837 293.483377,188.482399 292.520576,188.121349 C291.557775,187.760298 290.474625,187.579773 289.271124,187.579773 C288.073795,187.579773 286.993731,187.760298 286.03093,188.121349 C285.068129,188.482399 284.245737,188.94837 283.563754,189.519261 C282.88177,190.090152 282.360253,190.705789 281.999203,191.366172 C281.638153,192.026554 281.457627,192.649906 281.457627,193.236227 C281.457627,193.662081 281.608837,193.987643 281.911255,194.212914 C282.213673,194.438184 282.744447,194.55082 283.503579,194.55082 Z M289.280382,185.941161 C289.953108,185.941161 290.573374,185.759093 291.141179,185.394957 C291.708984,185.030821 292.164155,184.53862 292.506689,183.918354 C292.849224,183.298088 293.020492,182.599132 293.020492,181.821486 C293.020492,181.068526 292.847681,180.388085 292.502061,179.780163 C292.15644,179.172241 291.70127,178.692384 291.13655,178.340591 C290.571831,177.988799 289.953108,177.812903 289.280382,177.812903 C288.613828,177.812903 287.996648,177.991885 287.428842,178.349849 C286.861037,178.707813 286.405867,179.190756 286.063332,179.798679 C285.720797,180.406601 285.54953,181.087042 285.54953,181.840001 C285.54953,182.611476 285.720797,183.305803 286.063332,183.922983 C286.405867,184.540163 286.859494,185.030821 287.424213,185.394957 C287.988933,185.759093 288.607656,185.941161 289.280382,185.941161 Z M273.468235,194.55082 L280.40225,194.55082 C280.155378,194.199027 280.031942,193.774716 280.031942,193.277886 C280.031942,192.781056 280.13532,192.257997 280.342075,191.708706 C280.54883,191.159416 280.843534,190.624013 281.226185,190.102496 C281.608837,189.580979 282.062464,189.113465 282.587067,188.699955 C282.074807,188.372849 281.486944,188.099747 280.823475,187.880649 C280.160007,187.66155 279.40859,187.552 278.569226,187.552 C277.532364,187.552 276.595793,187.721725 275.759515,188.061174 C274.923236,188.400623 274.207307,188.846535 273.611729,189.398911 C273.01615,189.951287 272.557894,190.553037 272.236961,191.204162 C271.916027,191.855287 271.75556,192.495611 271.75556,193.125134 C271.75556,193.575675 271.885168,193.925925 272.144384,194.175883 C272.403599,194.425841 272.844883,194.55082 273.468235,194.55082 Z M278.569226,186.154088 C279.155547,186.154088 279.695579,185.995164 280.189323,185.677317 C280.683067,185.359469 281.078062,184.928986 281.374308,184.385868 C281.670555,183.842749 281.818678,183.237913 281.818678,182.571359 C281.818678,181.904805 281.670555,181.307683 281.374308,180.779995 C281.078062,180.252306 280.681524,179.835709 280.184694,179.530205 C279.687864,179.224701 279.149375,179.071949 278.569226,179.071949 C277.989077,179.071949 277.45213,179.227787 276.958386,179.539463 C276.464643,179.851139 276.066562,180.272364 275.764143,180.803139 C275.461725,181.333913 275.313602,181.926406 275.319774,182.580617 C275.319774,183.247171 275.467897,183.850464 275.764143,184.390497 C276.06039,184.930529 276.455385,185.359469 276.949129,185.677317 C277.442873,185.995164 277.982905,186.154088 278.569226,186.154088 Z M305.074014,194.55082 C305.697365,194.55082 306.138649,194.425841 306.397865,194.175883 C306.65708,193.925925 306.786688,193.575675 306.786688,193.125134 C306.786688,192.495611 306.627764,191.855287 306.309916,191.204162 C305.992069,190.553037 305.533813,189.951287 304.935148,189.398911 C304.336484,188.846535 303.617469,188.400623 302.778105,188.061174 C301.93874,187.721725 301.003713,187.552 299.973022,187.552 C299.133658,187.552 298.382241,187.66155 297.718773,187.880649 C297.055305,188.099747 296.467441,188.372849 295.955182,188.699955 C296.473613,189.113465 296.924154,189.580979 297.306806,190.102496 C297.689457,190.624013 297.985703,191.159416 298.195545,191.708706 C298.405386,192.257997 298.510306,192.781056 298.510306,193.277886 C298.510306,193.774716 298.38687,194.199027 298.139998,194.55082 L305.074014,194.55082 Z M299.973022,186.154088 C300.559343,186.154088 301.099376,185.995164 301.59312,185.677317 C302.086863,185.359469 302.481858,184.930529 302.778105,184.390497 C303.074351,183.850464 303.222474,183.247171 303.222474,182.580617 C303.222474,181.926406 303.072808,181.333913 302.773476,180.803139 C302.474144,180.272364 302.076063,179.851139 301.579233,179.539463 C301.082403,179.227787 300.547,179.071949 299.973022,179.071949 C299.386702,179.071949 298.846669,179.224701 298.352925,179.530205 C297.859182,179.835709 297.464186,180.252306 297.16794,180.779995 C296.871694,181.307683 296.723571,181.904805 296.723571,182.571359 C296.723571,183.237913 296.871694,183.842749 297.16794,184.385868 C297.464186,184.928986 297.857639,185.359469 298.348297,185.677317 C298.838955,185.995164 299.38053,186.154088 299.973022,186.154088 Z" id="community"></path>
        </g>
    </g>
</svg>