<?xml version="1.0" encoding="UTF-8"?>
<svg width="32px" height="20px" viewBox="0 0 32 20" version="1.1" xmlns="http://www.w3.org/2000/svg" xmlns:xlink="http://www.w3.org/1999/xlink">
    <title>developers</title>
    <g id="Page-1" stroke="none" stroke-width="1" fill="none" fill-rule="evenodd">
        <g id="Artboard" transform="translate(-477.000000, -175.000000)" fill="#00A703" fill-rule="nonzero">
            <path d="M478.481885,194.752489 L498.463984,194.752489 C498.110931,194.205871 497.928257,193.579509 497.915962,192.873403 C497.915962,192.707591 497.914439,192.542423 497.911395,192.3779 C497.90835,192.213376 497.906828,192.048208 497.906828,191.882396 L478.481885,191.882396 C478.088433,191.882396 477.752242,192.023383 477.473312,192.305357 C477.194383,192.587331 477.054918,192.925044 477.054918,193.318496 C477.054918,193.711948 477.194383,194.04931 477.473312,194.330581 C477.752242,194.611853 478.088433,194.752489 478.481885,194.752489 Z M480.861216,192.857419 L483.048389,192.857419 L483.048389,179.182674 C483.048389,178.838052 483.136593,178.577185 483.313003,178.400073 C483.489412,178.222961 483.749928,178.134405 484.09455,178.134405 L506.26347,178.134405 C506.226818,177.413896 506.000086,176.869591 505.583272,176.501491 C505.166459,176.13339 504.588606,175.94934 503.849712,175.94934 L483.561633,175.94934 C482.723557,175.94934 482.063968,176.177303 481.582867,176.633227 C481.101767,177.089151 480.861216,177.754536 480.861216,178.629382 L480.861216,192.857419 Z M501.477055,194.875969 L506.76196,194.875969 C507.452024,194.875969 507.989888,194.687879 508.375553,194.311699 C508.761218,193.935519 508.954051,193.412585 508.954051,192.742897 L508.954051,181.556736 C508.954051,180.886931 508.759696,180.362416 508.370986,179.983191 C507.982277,179.603966 507.445935,179.414354 506.76196,179.414354 L501.477055,179.414354 C500.780082,179.414354 500.236041,179.603966 499.844931,179.983191 C499.453821,180.362416 499.258266,180.886228 499.258266,181.554628 L499.258266,192.745004 C499.258266,193.413288 499.453821,193.935519 499.844931,194.311699 C500.236041,194.687879 500.780082,194.875969 501.477055,194.875969 Z M501.594388,193.190975 C501.366279,193.190975 501.194876,193.130552 501.080178,193.009706 C500.965479,192.88886 500.90813,192.711338 500.90813,192.477141 L500.90813,181.820208 C500.90813,181.586011 500.965479,181.407318 501.080178,181.28413 C501.194876,181.160942 501.366279,181.099348 501.594388,181.099348 L502.023497,181.099348 C502.071156,181.099348 502.094985,181.122533 502.094985,181.168905 L502.094985,181.280266 C502.094985,181.476523 502.155643,181.635309 502.276957,181.756624 C502.398272,181.877938 502.555652,181.938595 502.7491,181.938595 L505.465149,181.938595 C505.658713,181.938595 505.816124,181.877938 505.937379,181.756624 C506.058635,181.635309 506.119263,181.476523 506.119263,181.280266 L506.119263,181.168905 C506.119263,181.122533 506.142449,181.099348 506.18882,181.099348 L506.612835,181.099348 C506.839538,181.099348 507.011761,181.161644 507.129504,181.286238 C507.247247,181.410831 507.306119,181.590226 507.306119,181.824424 L507.306119,192.475209 C507.306119,192.708001 507.247247,192.885494 507.129504,193.007686 C507.011761,193.129879 506.839538,193.190975 506.612835,193.190975 L501.594388,193.190975 Z M502.57433,192.592893 L505.623759,192.592893 C505.892853,192.592893 506.027399,192.459049 506.027399,192.191361 C506.027399,192.074731 505.989254,191.979441 505.912964,191.905493 C505.836674,191.831546 505.740273,191.794572 505.623759,191.794572 L502.57433,191.794572 C502.459104,191.794572 502.366069,191.831546 502.295225,191.905493 C502.22438,191.979441 502.188957,192.074731 502.188957,192.191361 C502.188957,192.459049 502.317415,192.592893 502.57433,192.592893 Z" id="developers"></path>
        </g>
    </g>
</svg>