<?xml version="1.0" encoding="UTF-8"?>
<svg width="34px" height="26px" viewBox="0 0 34 26" version="1.1" xmlns="http://www.w3.org/2000/svg" xmlns:xlink="http://www.w3.org/1999/xlink">
    <title>discord</title>
    <g id="Page-1" stroke="none" stroke-width="1" fill="none" fill-rule="evenodd">
        <g id="Artboard" transform="translate(-342.000000, -449.000000)" fill="#5866f2" fill-rule="nonzero">
            <g id="Group-11" transform="translate(30.000000, 434.000000)">
                <g id="Group-Copy" transform="translate(292.604006, 0.000000)">
                    <path d="M47.9147171,17.8823139 C45.79441,16.9015712 43.5272772,16.1888082 41.157052,15.7829545 C40.8659599,16.3032445 40.525881,17.0030457 40.2914089,17.5597351 C37.7717987,17.1851317 35.2753573,17.1851317 32.8020847,17.5597351 C32.5676575,17.0030457 32.2198556,16.3032445 31.9261593,15.7829545 C29.5533748,16.1888082 27.2836377,16.9041902 25.1633305,17.8875075 C20.886652,24.2765399 19.7273147,30.5068796 20.3069845,36.648751 C23.1435025,38.7428724 25.8924303,40.0149881 28.5949665,40.8474254 C29.2622378,39.9395259 29.8573534,38.9744083 30.3700311,37.9572662 C29.3936176,37.5904753 28.4584231,37.137835 27.5747747,36.6123515 C27.8092019,36.4406528 28.0385105,36.2611414 28.2600512,36.0764365 C33.6496777,38.568599 39.5056443,38.568599 44.8308831,36.0764365 C45.055028,36.2611414 45.2842917,36.4406528 45.5161596,36.6123515 C44.629907,37.1404097 43.692153,37.5930499 42.7157395,37.9598851 C43.2284172,38.9744083 43.8209735,39.9421449 44.4908042,40.85 C47.1959445,40.0175628 49.9474228,38.7454913 52.783943,36.648751 C53.4641008,29.5287558 51.6220442,23.3556343 47.9147171,17.8823139 Z M31.1042944,32.8715554 C29.4863827,32.8715554 28.1595631,31.3783353 28.1595631,29.5599617 C28.1595631,27.7415882 29.4580503,26.2457935 31.1042944,26.2457935 C32.7505834,26.2457935 34.0773582,27.7389692 34.0490258,29.5599617 C34.051585,31.3783353 32.7505834,32.8715554 31.1042944,32.8715554 Z M41.9866398,32.8715554 C40.3687281,32.8715554 39.0419085,31.3783353 39.0419085,29.5599617 C39.0419085,27.7415882 40.3403508,26.2457935 41.9866398,26.2457935 C43.632884,26.2457935 44.9597036,27.7389692 44.9313711,29.5599617 C44.9313711,31.3783353 43.632884,32.8715554 41.9866398,32.8715554 Z" id="discord"></path>
                </g>
            </g>
        </g>
    </g>
</svg>