<?xml version="1.0" encoding="UTF-8"?>
<svg width="19px" height="30px" viewBox="0 0 19 30" version="1.1" xmlns="http://www.w3.org/2000/svg" xmlns:xlink="http://www.w3.org/1999/xlink">
    <title>phone</title>
    <g id="Page-1" stroke="none" stroke-width="1" fill="none" fill-rule="evenodd">
        <g id="Artboard" transform="translate(-140.000000, -171.000000)" fill="#1492DB" fill-rule="nonzero">
            <path d="M144.135643,200.911746 L154.539187,200.911746 C155.668985,200.911746 156.576466,200.57674 157.261632,199.906728 C157.946798,199.236716 158.289381,198.354376 158.289381,197.259708 L158.289381,175.620047 C158.289381,174.525379 157.946798,173.643039 157.261632,172.973027 C156.576466,172.303015 155.668985,171.968009 154.539187,171.968009 L144.135643,171.968009 C142.996891,171.968009 142.077493,172.302636 141.377449,172.971891 C140.677404,173.641145 140.327382,174.523037 140.327382,175.617567 L140.327382,197.262188 C140.327382,198.356718 140.677404,199.23861 141.377449,199.907864 C142.077493,200.577119 142.996891,200.911746 144.135643,200.911746 Z M144.58303,198.236932 C144.052641,198.236932 143.644035,198.100099 143.357211,197.826432 C143.070388,197.552765 142.926976,197.164376 142.926976,196.661264 L142.926976,176.218491 C142.926976,175.715379 143.070388,175.327024 143.357211,175.053426 C143.644035,174.779828 144.052641,174.643029 144.58303,174.643029 L145.471603,174.643029 C145.684723,174.643029 145.791283,174.746007 145.791283,174.951963 L145.791283,175.294994 C145.791283,175.581266 145.878694,175.813983 146.053516,175.993144 C146.228337,176.172306 146.458884,176.261886 146.745157,176.261886 L151.893098,176.261886 C152.177717,176.261886 152.405612,176.172306 152.576783,175.993144 C152.747954,175.813983 152.833539,175.581266 152.833539,175.294994 L152.833539,174.951963 C152.833539,174.746007 152.940995,174.643029 153.155906,174.643029 L154.046752,174.643029 C154.568324,174.643029 154.972522,174.78062 155.259345,175.055803 C155.546169,175.330985 155.68958,175.719374 155.68958,176.220971 L155.68958,196.658784 C155.68958,197.160381 155.546169,197.548805 155.259345,197.824056 C154.972522,198.099307 154.568324,198.236932 154.046752,198.236932 L144.58303,198.236932 Z M146.463913,197.20598 L152.174342,197.20598 C152.365282,197.20598 152.522883,197.144607 152.647145,197.02186 C152.771408,196.899113 152.833539,196.737103 152.833539,196.535831 C152.833539,196.334558 152.771408,196.173547 152.647145,196.052798 C152.522883,195.932048 152.365282,195.871673 152.174342,195.871673 L146.463913,195.871673 C146.272973,195.871673 146.113133,195.932048 145.984393,196.052798 C145.855653,196.173547 145.791283,196.334558 145.791283,196.535831 C145.791283,196.737103 145.855653,196.899113 145.984393,197.02186 C146.113133,197.144607 146.272973,197.20598 146.463913,197.20598 Z" id="phone"></path>
        </g>
    </g>
</svg>