<?xml version="1.0" encoding="UTF-8"?>
<svg width="22px" height="22px" viewBox="0 0 22 22" version="1.1" xmlns="http://www.w3.org/2000/svg" xmlns:xlink="http://www.w3.org/1999/xlink">
    <title>store</title>
    <g id="Page-1" stroke="none" stroke-width="1" fill="none" fill-rule="evenodd">
        <g id="Artboard" transform="translate(-684.000000, -175.000000)" fill="#E57F00" fill-rule="nonzero">
            <path d="M687.717845,196.394437 L701.331289,196.394437 C702.54537,196.394437 703.463425,196.085296 704.085454,195.467014 C704.707484,194.848732 705.018498,193.940045 705.018498,192.740953 L705.018498,179.06006 C705.018498,177.853473 704.707484,176.942913 704.085454,176.328378 C703.463425,175.713843 702.54537,175.406576 701.331289,175.406576 L687.717845,175.406576 C686.503764,175.406576 685.585709,175.713843 684.96368,176.328378 C684.341651,176.942913 684.030637,177.853473 684.030637,179.06006 L684.030637,192.740953 C684.030637,193.940045 684.341651,194.848732 684.96368,195.467014 C685.585709,196.085296 686.503764,196.394437 687.717845,196.394437 Z M691.30388,191.830392 C691.071556,192.002762 690.8486,192.070211 690.635012,192.032739 C690.421424,191.995268 690.262169,191.880979 690.157249,191.689874 C690.052328,191.498769 690.044834,191.264571 690.134766,190.987281 L691.427537,187.153933 L688.13378,184.815703 C687.923939,184.658322 687.802156,184.46909 687.768432,184.248008 C687.734707,184.026925 687.787168,183.832072 687.925813,183.66345 C688.064458,183.494828 688.283667,183.414264 688.58344,183.421758 L692.619135,183.466724 L693.844457,179.599652 C693.934389,179.329856 694.074908,179.149992 694.266013,179.06006 C694.457118,178.970128 694.648224,178.970128 694.839329,179.06006 C695.030434,179.149992 695.170953,179.329856 695.260885,179.599652 L696.497449,183.466724 L700.533144,183.421758 C700.832917,183.414264 701.052126,183.496701 701.190771,183.669071 C701.329416,183.84144 701.381876,184.038166 701.348152,184.259249 C701.314427,184.480332 701.188897,184.662069 700.971562,184.804461 L697.689047,187.153933 L698.970577,190.987281 C699.068003,191.264571 699.064256,191.498769 698.959335,191.689874 C698.854414,191.880979 698.69516,191.995268 698.481572,192.032739 C698.267983,192.070211 698.045027,192.002762 697.812703,191.830392 L694.552671,189.447197 L691.30388,191.830392 Z" id="store"></path>
        </g>
    </g>
</svg>